<?xml version="1.0" standalone="no"?>
<!DOCTYPE svg PUBLIC "-//W3C//DTD SVG 20010904//EN"
 "http://www.w3.org/TR/2001/REC-SVG-20010904/DTD/svg10.dtd">
<svg version="1.0" xmlns="http://www.w3.org/2000/svg"
 width="2489.000000pt" height="419.000000pt" viewBox="0 0 2489.000000 419.000000"
 preserveAspectRatio="xMidYMid meet">

<g transform="translate(0.000000,419.000000) scale(0.100000,-0.100000)"
fill="#1700b2" stroke="none">
<path d="M3135 4063 c-376 -48 -778 -185 -1142 -387 -399 -222 -831 -565
-1322 -1050 -362 -359 -471 -478 -471 -516 0 -44 57 -108 384 -436 475 -474
870 -811 1169 -997 222 -137 567 -302 782 -373 360 -118 653 -161 1024 -151
297 8 510 45 796 138 525 170 977 451 1570 977 139 124 616 598 753 749 l83
91 -78 87 c-94 105 -670 669 -803 787 -530 469 -1009 767 -1510 940 -182 62
-451 121 -630 137 -107 10 -537 13 -605 4z m655 -309 c559 -84 1133 -367 1695
-834 239 -199 845 -781 845 -812 0 -8 -73 -88 -162 -179 -520 -529 -956 -885
-1358 -1111 -347 -195 -632 -295 -1020 -355 -154 -24 -477 -24 -640 1 -393 59
-633 138 -963 317 -296 161 -520 318 -826 581 -140 121 -489 449 -661 623
l-125 126 230 227 c783 773 1373 1172 1983 1341 103 29 361 84 442 95 71 9
458 -4 560 -20z"/>
<path d="M3215 3370 c-181 -18 -465 -107 -698 -220 -422 -203 -673 -392 -1156
-866 l-175 -172 75 -83 c133 -147 457 -446 634 -584 367 -286 803 -501 1165
-575 96 -20 129 -21 430 -18 l325 4 127 32 c181 45 358 113 553 212 263 134
434 247 650 429 118 100 575 553 575 570 0 8 -84 99 -187 203 -291 294 -510
484 -718 623 -321 213 -775 397 -1071 434 -118 15 -425 21 -529 11z m455 -301
c204 -28 497 -128 730 -250 269 -141 576 -376 838 -641 l73 -74 -173 -170
c-266 -262 -494 -431 -758 -564 -322 -162 -737 -264 -995 -245 -173 13 -410
65 -552 121 -201 79 -551 276 -735 415 -136 103 -478 419 -478 443 0 28 334
332 505 460 363 272 841 483 1170 516 91 9 264 4 375 -11z"/>
<path d="M3340 2646 c-113 -30 -208 -86 -291 -173 -57 -58 -88 -109 -119 -188
-34 -87 -35 -261 -2 -357 85 -245 316 -394 577 -372 201 16 345 101 440 259
130 217 101 471 -75 659 -72 76 -130 116 -225 152 -87 32 -222 41 -305 20z"/>
<path d="M15734 3430 c-137 -28 -223 -119 -224 -235 0 -106 81 -210 189 -242
74 -21 198 -14 269 17 130 56 178 204 107 326 -59 101 -211 161 -341 134z"/>
<path d="M8260 3380 c-195 -27 -407 -141 -548 -296 -128 -140 -175 -264 -176
-469 -1 -110 3 -141 23 -205 65 -207 189 -345 406 -450 115 -56 216 -91 473
-161 401 -109 519 -165 574 -273 32 -62 30 -167 -5 -239 -33 -67 -119 -150
-189 -182 -150 -68 -461 -54 -599 28 -108 65 -220 212 -236 310 l-6 39 -111
-6 c-146 -9 -348 -33 -382 -46 -25 -10 -26 -13 -21 -55 4 -24 20 -80 37 -123
172 -447 587 -667 1174 -623 422 32 683 180 821 466 57 118 69 180 68 350 -1
213 -24 293 -126 431 -113 153 -306 247 -740 358 -304 78 -465 137 -550 200
-16 11 -41 41 -55 66 -36 61 -37 171 -3 243 99 203 415 287 649 172 99 -49
196 -145 240 -237 23 -49 39 -69 56 -74 41 -10 458 56 480 77 14 13 -12 114
-50 197 -108 236 -346 426 -611 488 -79 19 -487 28 -593 14z"/>
<path d="M23384 3380 c-265 -34 -568 -259 -669 -499 -34 -81 -49 -206 -42
-356 5 -133 20 -183 79 -275 54 -84 115 -148 201 -212 132 -98 200 -124 645
-248 380 -106 481 -151 532 -242 34 -59 35 -190 3 -260 -67 -145 -236 -228
-461 -228 -261 1 -431 104 -533 325 l-44 95 -45 0 c-96 0 -381 -30 -415 -44
-41 -17 -44 -37 -20 -131 54 -210 225 -427 426 -541 212 -120 438 -161 741
-135 179 16 291 40 414 88 208 82 351 212 434 397 44 99 55 158 54 316 0 175
-14 251 -61 349 -104 210 -309 332 -763 450 -430 113 -512 143 -587 216 -37
36 -55 63 -63 95 -16 60 -7 168 19 218 42 82 171 166 302 197 80 19 135 19
224 0 154 -33 273 -122 350 -263 21 -41 47 -78 56 -83 27 -14 472 51 493 72
22 21 -48 209 -114 304 -122 177 -341 328 -555 381 -72 18 -490 28 -601 14z"/>
<path d="M20770 2015 l0 -1358 122 6 c66 4 182 7 255 7 l135 0 -4 1339 c-2
737 -7 1343 -11 1347 -4 5 -118 10 -252 12 l-245 4 0 -1357z"/>
<path d="M21760 2015 l0 -1355 250 0 250 0 0 1355 0 1355 -250 0 -250 0 0
-1355z"/>
<path d="M14266 3159 c-3 -24 -12 -141 -21 -259 -9 -118 -17 -216 -19 -217 -2
-2 -62 -6 -135 -10 l-131 -6 0 -199 0 -198 140 0 140 0 0 -442 c0 -619 15
-799 71 -911 12 -23 52 -72 88 -108 76 -76 171 -127 296 -160 168 -45 485 -20
552 43 27 25 28 63 10 253 l-12 120 -155 -3 c-145 -3 -158 -2 -200 20 -49 25
-101 92 -121 156 -8 25 -13 198 -16 533 l-5 496 173 6 c96 4 207 7 247 7 l72
0 0 190 0 190 -72 0 c-40 0 -150 3 -244 7 l-170 6 4 259 5 258 -134 0 c-74 0
-184 3 -246 7 l-111 6 -6 -44z"/>
<path d="M12882 2700 c-148 -27 -238 -77 -360 -203 -46 -47 -85 -80 -87 -74
-2 7 -5 60 -8 120 -2 59 -6 109 -8 111 -2 2 -109 7 -236 11 l-233 7 0 -1006 0
-1006 240 0 240 0 1 148 c0 81 4 352 9 602 11 597 20 648 131 766 32 33 72 62
112 80 55 25 73 29 157 28 114 0 184 -24 254 -85 58 -51 92 -108 105 -179 6
-30 15 -246 21 -480 5 -234 13 -525 16 -648 l6 -222 249 0 249 0 0 609 c0 776
-10 912 -79 1051 -89 178 -218 284 -423 346 -94 28 -267 40 -356 24z"/>
<path d="M17435 2701 c-154 -26 -248 -75 -361 -190 -46 -46 -86 -82 -90 -79
-3 4 -8 58 -11 122 l-6 116 -238 0 -239 0 0 -338 c0 -186 3 -637 7 -1001 l6
-661 241 2 241 3 11 661 10 660 53 88 c87 143 194 208 345 207 110 0 188 -35
263 -115 106 -113 113 -163 120 -928 l5 -588 237 6 c130 3 242 7 249 10 14 4
15 339 2 1019 -7 396 -10 437 -30 515 -36 138 -72 202 -164 294 -92 92 -160
131 -301 171 -98 29 -260 40 -350 26z"/>
<path d="M10504 2690 c-65 -14 -194 -67 -261 -107 -265 -161 -416 -403 -454
-724 -14 -127 -6 -405 15 -503 75 -339 324 -603 654 -695 102 -28 261 -44 362
-36 329 26 545 159 733 450 81 126 95 180 50 189 -42 8 -215 24 -338 31 l-110
6 -48 -75 c-98 -154 -244 -226 -402 -197 -85 15 -196 73 -240 124 -89 102
-165 270 -165 362 l0 55 680 0 680 0 0 116 c0 434 -176 769 -485 923 -128 64
-218 82 -440 86 -104 2 -208 0 -231 -5z m408 -409 c66 -25 132 -91 168 -167
19 -42 59 -197 60 -233 0 -12 -60 -13 -397 -8 -219 3 -409 9 -422 13 -21 6
-23 11 -18 49 6 58 76 200 126 257 43 48 99 81 179 104 71 20 232 12 304 -15z"/>
<path d="M19328 2690 c-278 -47 -520 -240 -652 -521 -57 -120 -76 -196 -86
-341 -9 -126 2 -404 19 -478 98 -429 428 -702 877 -727 391 -21 744 175 904
504 46 94 51 130 18 142 -13 4 -86 11 -163 15 -77 3 -174 8 -215 12 l-75 5
-55 -77 c-119 -167 -274 -229 -446 -179 -180 52 -330 250 -360 473 l-7 52 474
0 c261 0 572 3 692 7 l218 6 -6 116 c-12 236 -29 328 -87 474 -57 144 -161
276 -298 377 -109 80 -168 104 -329 134 -89 17 -337 20 -423 6z m384 -405 c61
-21 116 -82 167 -183 37 -73 71 -177 71 -216 0 -14 -42 -16 -431 -16 l-431 0
7 33 c22 105 80 221 144 291 41 45 124 94 177 105 69 14 239 6 296 -14z"/>
<path d="M15622 2663 l-62 -4 2 -997 3 -997 253 -3 252 -2 0 1005 0 1005 -192
-2 c-106 -1 -221 -3 -256 -5z"/>
</g>
</svg>
