<?xml version="1.0" standalone="no"?>
<!DOCTYPE svg PUBLIC "-//W3C//DTD SVG 20010904//EN"
 "http://www.w3.org/TR/2001/REC-SVG-20010904/DTD/svg10.dtd">
<svg version="1.0" xmlns="http://www.w3.org/2000/svg"
 width="2000.000000pt" height="2000.000000pt" viewBox="0 0 2000.000000 2000.000000"
 preserveAspectRatio="xMidYMid meet">

<g transform="translate(0.000000,2000.000000) scale(0.100000,-0.100000)"
fill="#1800b0" stroke="none">
<path d="M10320 19305 c-641 -55 -1185 -199 -1670 -446 -329 -167 -578 -347
-827 -600 -253 -256 -383 -452 -544 -817 -85 -193 -157 -327 -203 -379 -100
-114 -376 -193 -1168 -332 -367 -65 -457 -84 -608 -127 -797 -227 -1472 -556
-1990 -970 -165 -132 -455 -420 -574 -569 -243 -306 -455 -689 -549 -995 -20
-63 -79 -277 -132 -475 -176 -658 -201 -742 -238 -782 -32 -36 -114 -61 -305
-92 -118 -20 -200 -39 -243 -57 -357 -152 -627 -553 -789 -1168 -119 -456
-190 -1047 -190 -1583 0 -939 199 -1632 580 -2014 139 -140 275 -224 460 -285
78 -25 101 -28 273 -32 182 -4 187 -5 192 -26 26 -127 145 -587 185 -716 206
-662 484 -1132 861 -1455 575 -491 1430 -858 2589 -1109 371 -80 465 -96 579
-96 159 0 329 -17 402 -39 67 -21 129 -69 129 -100 0 -28 -53 -656 -55 -659
-2 -2 -80 -23 -173 -47 -1582 -404 -2677 -1225 -3111 -2334 -52 -133 -101
-285 -101 -314 0 -16 25 -17 346 -15 l347 3 46 100 c342 740 933 1306 1741
1665 569 253 1248 376 1889 341 234 -12 778 -50 1101 -76 102 -8 322 -26 490
-40 513 -42 544 -44 875 -70 510 -39 1011 -71 1430 -90 72 -4 402 -10 735 -15
639 -10 794 -19 1067 -65 375 -64 753 -190 1128 -377 396 -197 723 -434 1040
-752 207 -208 339 -371 463 -574 l32 -52 368 0 c203 0 371 3 374 6 17 16 -138
331 -249 507 -568 907 -1670 1593 -2888 1797 -71 12 -133 24 -137 26 -3 2 -14
35 -22 74 -22 95 -20 259 5 475 13 112 19 222 17 290 l-3 110 45 22 c55 27
176 43 328 43 93 0 145 7 305 41 670 141 1194 314 1667 551 350 175 611 354
838 572 259 251 394 449 521 768 43 110 85 223 273 743 70 196 142 374 183
455 93 185 183 220 563 220 175 0 233 4 302 19 490 109 757 429 929 1116 37
148 194 896 256 1220 86 450 147 854 180 1190 20 211 20 556 0 662 -53 281
-225 550 -455 712 -99 69 -167 103 -270 134 -113 34 -186 44 -433 62 -195 15
-298 30 -389 57 -21 6 -39 12 -39 12 -1 1 -5 287 -9 636 -8 680 -12 737 -66
979 -163 731 -774 1376 -1847 1953 -301 162 -740 356 -1112 493 -267 97 -237
75 -268 201 -15 60 -45 192 -68 294 -118 538 -212 727 -490 995 -629 606
-1711 1056 -2834 1179 -350 38 -778 46 -1085 21z m685 -585 c688 -44 1302
-198 1850 -464 371 -181 626 -356 865 -596 133 -134 222 -254 291 -395 73
-149 110 -327 94 -451 l-7 -57 -101 7 c-139 9 -383 40 -644 82 -322 51 -664
101 -778 113 -560 60 -1718 98 -2650 87 -854 -11 -1109 -21 -1425 -56 -277
-30 -500 -37 -690 -21 l-75 6 -3 34 c-5 51 15 113 74 233 300 605 825 1034
1569 1282 473 158 1078 231 1630 196z m135 -2204 c2520 -137 4358 -605 5375
-1370 486 -365 756 -768 905 -1352 87 -339 114 -694 114 -1524 0 -640 -16
-1023 -70 -1625 -56 -636 -179 -1519 -274 -1965 -5 -25 -21 -101 -35 -170
-170 -820 -392 -1553 -645 -2135 -79 -181 -232 -479 -296 -575 -179 -269 -367
-422 -763 -620 -644 -322 -1453 -522 -2451 -604 -454 -38 -563 -41 -1355 -40
-772 0 -872 3 -1775 44 -549 25 -710 31 -1215 45 -1053 29 -1563 56 -2095 110
-1070 110 -1895 313 -2535 625 -543 265 -939 606 -1201 1036 -179 294 -338
699 -449 1143 -274 1098 -317 2619 -119 4321 69 598 151 995 291 1410 477
1412 1463 2310 3053 2779 889 262 1922 401 3500 471 135 6 277 12 315 14 198
9 1464 -4 1725 -18z m-9400 -4310 c0 -13 -24 -318 -54 -677 l-54 -654 8 -365
c5 -201 16 -729 24 -1175 9 -445 18 -901 22 -1013 l6 -202 -95 34 c-209 76
-358 166 -467 283 -81 87 -122 154 -165 277 -226 631 -155 2208 127 2836 45
101 264 375 433 542 126 126 215 173 215 114z m16703 -311 c384 -52 511 -108
547 -244 20 -78 30 -257 30 -551 0 -524 -32 -789 -181 -1514 -165 -799 -189
-921 -219 -1106 -32 -195 -40 -220 -82 -260 -93 -88 -442 -182 -680 -184 -114
-1 -129 1 -155 20 -25 19 -28 27 -26 75 1 30 40 317 87 639 47 322 101 695
121 830 38 260 123 845 155 1070 11 74 47 322 80 550 33 228 70 483 82 566
l21 151 49 -13 c27 -7 104 -20 171 -29z m-10858 -7800 c825 -53 1709 -81 3275
-105 366 -6 896 -15 1179 -21 500 -11 515 -11 548 -32 l34 -22 -6 -105 c-3
-58 -12 -248 -20 -424 -8 -175 -17 -321 -20 -324 -5 -5 -209 4 -665 28 -96 6
-310 17 -475 25 -165 8 -385 20 -490 25 -104 6 -275 15 -380 20 -104 5 -275
14 -380 20 -192 10 -388 20 -1265 65 -267 14 -573 29 -680 35 -107 6 -366 19
-574 30 l-379 20 -48 31 c-59 38 -50 -28 -86 572 l-6 108 39 40 39 41 65 -6
c36 -4 169 -13 295 -21z"/>
<path d="M5945 15053 c-1073 -127 -1936 -735 -2388 -1683 -466 -976 -482
-2183 -42 -3107 359 -754 975 -1238 1780 -1402 559 -114 1063 -87 1580 84 509
168 935 433 1325 824 539 541 874 1205 991 1961 31 198 34 667 6 860 -147
1005 -649 1736 -1482 2160 -318 161 -662 261 -1050 305 -165 19 -556 18 -720
-2z m798 -593 c264 -39 467 -103 697 -221 637 -327 1060 -989 1162 -1819 16
-134 16 -482 0 -625 -50 -430 -193 -842 -413 -1192 -206 -327 -517 -630 -851
-829 -314 -187 -688 -316 -1083 -375 -162 -24 -470 -26 -624 -4 -953 136
-1640 938 -1788 2088 -20 161 -23 555 -4 697 32 250 67 410 133 610 279 855
933 1448 1798 1630 204 43 362 58 605 59 183 1 258 -3 368 -19z"/>
<path d="M6110 13313 c-87 -8 -235 -36 -283 -52 -390 -135 -658 -556 -737
-1161 -18 -130 -15 -437 5 -571 54 -367 172 -636 362 -820 358 -349 844 -361
1247 -31 363 297 608 978 557 1547 -44 481 -240 823 -568 989 -156 78 -390
118 -583 99z"/>
<path d="M13135 14789 c-994 -82 -1745 -505 -2249 -1266 -489 -741 -665 -1729
-476 -2673 159 -794 576 -1460 1155 -1845 531 -354 1143 -471 1906 -365 907
126 1639 536 2138 1200 731 971 847 2381 286 3479 -187 365 -428 663 -735 907
-375 299 -818 481 -1330 549 -148 19 -537 28 -695 14z m410 -639 c634 -73
1341 -472 1709 -965 108 -144 162 -233 236 -388 315 -659 291 -1458 -66 -2169
-206 -409 -534 -775 -916 -1021 -165 -107 -397 -212 -598 -271 -391 -115 -909
-123 -1324 -20 -283 70 -534 189 -761 359 -114 86 -296 265 -376 370 -243 319
-393 680 -465 1122 -25 152 -30 544 -10 718 82 709 409 1331 916 1741 346 279
785 464 1245 523 99 12 304 13 410 1z"/>
<path d="M12945 12801 c-147 -24 -295 -83 -409 -165 -347 -248 -539 -794 -471
-1343 57 -457 260 -812 565 -986 25 -14 92 -42 150 -61 511 -171 1008 -3 1303
441 225 338 298 755 205 1183 -99 461 -404 796 -825 907 -85 22 -122 26 -283
29 -102 1 -207 -1 -235 -5z"/>
<path d="M3980 8325 c-158 -45 -240 -155 -240 -324 0 -190 114 -373 267 -431
122 -46 274 -6 385 102 148 144 150 400 4 556 -69 74 -146 105 -266 109 -63 2
-114 -2 -150 -12z"/>
<path d="M15150 8108 c-73 -11 -166 -56 -214 -104 -140 -140 -116 -371 47
-452 137 -69 363 -33 452 71 119 139 68 382 -98 460 -62 30 -112 36 -187 25z"/>
<path d="M7073 7808 c-117 -122 -213 -504 -213 -845 0 -377 101 -640 294 -765
121 -78 -20 -71 1706 -76 2719 -8 2705 -8 2840 6 231 25 360 53 420 94 69 47
123 189 151 398 26 186 13 632 -22 775 -39 161 -157 294 -321 362 l-63 27
-560 7 c-308 4 -974 13 -1480 19 -506 6 -1237 15 -1625 20 -388 6 -793 10
-901 10 l-195 0 -31 -32z"/>
<path d="M5135 7250 c-146 -31 -230 -125 -251 -281 -16 -114 46 -289 131 -374
162 -162 401 -111 487 104 19 47 23 75 23 176 0 114 -2 123 -31 185 -40 86
-83 133 -147 165 -58 28 -149 39 -212 25z"/>
<path d="M13868 6814 c-163 -39 -270 -147 -298 -302 -31 -173 72 -353 254
-443 173 -85 339 -66 457 53 87 87 132 202 132 338 -1 179 -91 309 -247 355
-62 19 -221 18 -298 -1z"/>
<path d="M12059 1646 c-112 -32 -198 -99 -269 -209 -72 -110 -80 -244 -20
-355 86 -163 305 -274 475 -243 160 30 256 146 287 348 39 247 -120 456 -354
468 -43 3 -92 -1 -119 -9z"/>
<path d="M9755 1525 c-164 -36 -299 -125 -356 -237 -33 -63 -38 -184 -11 -259
36 -103 137 -235 245 -321 l49 -38 184 0 c180 0 184 0 195 23 6 12 51 63 99
112 97 100 110 126 130 275 19 138 -12 251 -94 338 -96 103 -270 145 -441 107z"/>
<path d="M6859 1416 c-132 -47 -222 -164 -256 -333 -13 -64 -14 -91 -5 -149
14 -89 44 -170 83 -223 l29 -41 243 2 242 3 53 95 c76 138 95 192 100 287 3
71 1 89 -21 136 -29 64 -78 115 -160 168 -101 65 -220 87 -308 55z"/>
</g>
</svg>
