<?xml version="1.0" standalone="no"?>
<!DOCTYPE svg PUBLIC "-//W3C//DTD SVG 20010904//EN"
 "http://www.w3.org/TR/2001/REC-SVG-20010904/DTD/svg10.dtd">
<svg version="1.0" xmlns="http://www.w3.org/2000/svg"
 width="2048.000000pt" height="2048.000000pt" viewBox="0 0 2048.000000 2048.000000"
 preserveAspectRatio="xMidYMid meet">

<g transform="translate(0.000000,2048.000000) scale(0.100000,-0.100000)"
fill="#000000" stroke="none">
<path d="M10350 19903 c-14 -2 -86 -15 -160 -29 -367 -67 -626 -167 -910 -353
-138 -91 -355 -300 -438 -423 -28 -41 -87 -147 -131 -236 -87 -176 -134 -254
-174 -290 -30 -28 -159 -73 -277 -96 -47 -10 -123 -26 -170 -36 -47 -11 -101
-22 -120 -25 -85 -16 -396 -89 -510 -121 -231 -65 -455 -153 -580 -230 -47
-28 -105 -61 -128 -73 -216 -109 -538 -399 -727 -655 -64 -86 -147 -228 -185
-314 -52 -120 -125 -350 -147 -463 l-18 -91 -51 -23 c-101 -45 -138 -144 -95
-254 17 -42 19 -56 10 -68 -19 -22 -65 -43 -97 -43 -48 0 -202 -58 -269 -101
-217 -142 -386 -494 -442 -919 -30 -232 -51 -674 -40 -860 20 -338 50 -464
172 -720 69 -143 133 -220 247 -297 122 -82 197 -113 297 -123 101 -11 138
-32 153 -91 5 -21 15 -58 21 -81 25 -99 131 -406 175 -505 105 -243 156 -323
308 -483 170 -178 295 -265 626 -431 161 -81 391 -156 728 -239 369 -91 371
-91 690 -120 128 -11 239 -23 247 -27 37 -13 45 -57 45 -227 0 -195 13 -176
-155 -226 -60 -18 -191 -62 -290 -97 -99 -35 -193 -64 -210 -64 -16 -1 -156
31 -310 70 -154 39 -350 86 -435 106 -322 73 -731 196 -1163 348 -126 44 -130
45 -170 31 -51 -18 -78 -43 -129 -118 -38 -55 -42 -58 -74 -53 -53 9 -125 -33
-179 -105 -25 -33 -45 -64 -45 -69 0 -5 -7 -9 -15 -9 -50 0 -173 -89 -228
-164 -14 -19 -17 -19 -85 -3 -120 29 -174 20 -245 -42 -56 -50 -71 -102 -64
-224 5 -88 75 -646 137 -1092 10 -77 24 -183 30 -235 6 -52 13 -103 15 -113 2
-10 -17 -43 -41 -75 -252 -327 -374 -541 -444 -782 -12 -41 -39 -104 -60 -140
-81 -139 -120 -298 -120 -494 0 -174 26 -276 122 -474 55 -115 66 -131 157
-222 81 -81 112 -104 185 -141 68 -34 94 -52 112 -81 35 -55 81 -96 144 -128
65 -33 196 -75 263 -85 27 -4 50 -13 52 -19 3 -6 20 -141 40 -301 20 -159 49
-382 65 -495 16 -113 36 -259 45 -325 38 -291 47 -321 114 -354 20 -10 110
-42 201 -71 201 -63 344 -110 470 -155 52 -18 223 -75 380 -125 311 -99 721
-231 980 -316 91 -29 219 -69 285 -89 66 -20 123 -40 128 -44 4 -4 -4 -38 -18
-75 -14 -38 -39 -119 -56 -180 -74 -274 -78 -282 -238 -488 -49 -64 -62 -89
-75 -147 -51 -222 24 -446 180 -537 51 -30 59 -48 115 -264 21 -85 56 -216 75
-290 37 -139 68 -268 85 -355 33 -173 41 -207 45 -220 8 -21 -68 -66 -194
-116 -173 -68 -309 -140 -419 -223 -41 -31 -58 -54 -84 -110 -28 -61 -33 -84
-37 -172 -4 -91 -2 -108 18 -148 51 -106 86 -113 482 -97 674 28 1005 51 1188
81 194 33 214 51 214 189 1 52 -7 114 -18 156 -11 46 -20 129 -25 240 -7 156
-9 175 -34 225 -14 30 -45 78 -68 105 -59 70 -77 117 -94 242 -41 287 -124
715 -155 799 -17 43 -11 117 15 193 45 135 43 226 -11 404 -20 67 -23 58 72
298 30 76 54 144 54 153 0 22 13 20 116 -14 49 -17 159 -51 244 -76 308 -89
397 -123 448 -167 166 -143 307 -187 606 -187 255 0 385 35 516 139 60 47 81
56 280 120 118 38 292 93 385 121 94 29 189 58 211 65 l42 13 45 -126 c25 -70
58 -162 73 -204 l29 -78 -23 -62 c-35 -93 -45 -162 -39 -268 5 -73 12 -109 32
-155 29 -65 29 -113 -1 -211 -21 -67 -76 -368 -114 -614 -36 -233 -55 -302
-97 -348 -39 -44 -99 -163 -118 -237 -11 -43 -14 -83 -9 -140 5 -64 1 -105
-20 -206 -42 -204 -32 -290 40 -331 50 -29 240 -55 554 -77 162 -11 360 -26
440 -32 179 -14 718 -7 773 10 59 19 77 57 77 167 0 104 -24 210 -63 277 -53
89 -122 132 -444 273 -142 62 -239 110 -246 122 -3 4 8 55 24 112 39 139 50
181 104 400 25 102 69 277 98 389 l52 204 67 40 c57 35 71 49 107 112 51 88
71 176 71 312 0 138 -20 188 -117 296 -98 108 -117 142 -148 267 -32 128 -65
241 -99 337 -18 53 -21 74 -13 81 7 5 55 21 107 36 52 15 172 52 265 81 94 30
240 74 325 100 85 26 216 66 290 90 74 24 252 80 395 125 647 202 1107 356
1140 382 14 11 30 38 36 61 26 98 107 776 149 1252 18 195 12 184 100 206 141
36 252 105 305 189 18 29 42 46 97 71 71 33 174 110 232 173 49 54 144 204
166 264 61 162 88 365 70 533 -15 140 -45 243 -109 367 -27 53 -62 140 -76
192 -30 107 -100 262 -177 389 -61 102 -195 289 -250 349 -45 49 -45 -1 3 417
27 233 70 609 104 926 28 259 17 333 -60 396 -64 53 -135 62 -253 31 l-43 -11
-67 65 c-78 76 -138 118 -169 118 -15 0 -34 18 -64 60 -63 91 -113 123 -192
124 -34 1 -43 7 -90 66 -62 77 -108 110 -152 110 -17 0 -117 -30 -221 -66
-374 -131 -689 -224 -1109 -325 -137 -34 -398 -98 -580 -144 -181 -45 -346
-85 -366 -89 -20 -3 -95 3 -170 14 -125 18 -136 21 -161 50 -27 29 -28 34 -28
143 1 61 7 172 14 245 15 162 15 161 137 162 88 0 247 28 421 74 51 13 117 29
146 35 94 20 432 150 577 223 219 110 395 233 550 385 65 63 93 101 150 203
85 152 224 474 270 625 19 62 56 157 82 211 41 84 54 102 88 121 22 12 62 24
90 27 27 3 105 10 172 15 131 12 245 45 356 104 105 55 253 211 312 327 34 68
112 308 139 429 32 141 41 195 76 466 17 127 40 295 51 375 27 180 36 497 20
636 -30 256 -108 401 -286 534 -59 44 -170 90 -217 90 -42 0 -58 15 -58 55 0
97 -69 203 -164 253 -41 21 -64 26 -118 25 -59 0 -67 2 -72 21 -3 11 -6 93 -6
181 0 210 -23 428 -54 514 -78 215 -120 296 -210 411 -210 270 -459 473 -831
678 -71 39 -161 85 -200 102 -38 17 -90 41 -115 52 -25 12 -113 49 -197 84
-187 77 -257 120 -279 171 -9 21 -33 106 -54 188 -86 340 -159 461 -395 658
-149 125 -174 144 -290 214 -241 147 -643 286 -1010 348 -82 14 -167 31 -190
36 -41 11 -718 22 -765 12z m695 -363 c39 -5 95 -16 125 -25 30 -8 123 -31
205 -51 294 -71 530 -169 751 -310 184 -118 295 -217 398 -357 34 -47 67 -126
97 -234 22 -81 22 -83 3 -104 -17 -19 -27 -20 -114 -16 -52 2 -151 11 -220 20
-69 9 -168 21 -220 28 -52 6 -158 19 -235 29 -346 46 -546 55 -1215 54 -349 0
-815 -6 -1035 -13 -468 -15 -602 -17 -612 -7 -16 15 52 182 106 261 120 177
211 273 371 392 88 65 241 151 300 168 14 4 39 16 55 26 44 26 314 97 555 145
75 15 567 11 685 -6z m-100 -1270 c246 -9 339 -17 710 -65 456 -57 514 -67
857 -136 334 -66 394 -81 528 -129 63 -22 165 -58 225 -79 362 -127 605 -262
830 -459 156 -137 308 -338 376 -502 67 -160 129 -511 129 -735 l0 -102 -142
-73 c-192 -99 -277 -143 -441 -229 -76 -40 -140 -71 -143 -68 -3 2 -12 60 -20
128 -18 146 -36 234 -65 320 -29 88 -139 315 -186 386 -22 32 -52 80 -68 108
-36 62 -184 217 -290 302 -76 62 -105 80 -269 165 -243 126 -503 176 -866 165
-162 -5 -186 -8 -330 -45 -192 -49 -280 -84 -440 -173 -157 -88 -245 -155
-377 -288 -123 -125 -242 -295 -319 -456 -54 -115 -138 -352 -150 -423 -4 -23
-8 -42 -10 -42 -3 0 -32 12 -67 26 -90 37 -109 42 -217 54 -106 12 -237 -2
-329 -35 -24 -8 -47 -15 -50 -15 -4 0 -15 46 -25 103 -58 328 -123 516 -246
712 -216 344 -555 593 -934 685 -217 52 -231 54 -491 54 -212 1 -261 -2 -325
-18 -177 -44 -291 -80 -382 -121 -102 -46 -283 -148 -294 -166 -3 -6 -29 -26
-58 -44 -63 -41 -217 -179 -265 -239 -184 -225 -340 -543 -393 -798 -7 -32
-16 -58 -20 -58 -4 0 -25 15 -45 33 -21 19 -56 47 -78 63 -22 16 -98 73 -168
127 -146 113 -137 85 -80 257 70 214 208 463 382 685 143 184 437 441 630 552
174 99 267 142 546 250 128 50 413 125 605 158 41 8 113 23 160 34 47 12 104
21 127 21 23 0 75 4 115 10 233 31 317 41 438 50 74 6 221 21 325 34 177 22
228 24 760 25 314 0 692 -4 840 -9z m-2424 -1228 c110 -26 317 -128 428 -212
87 -66 193 -179 258 -276 42 -62 126 -239 162 -337 12 -33 36 -127 53 -210 28
-136 31 -170 31 -322 0 -183 -14 -280 -73 -490 -64 -232 -170 -417 -348 -608
-35 -38 -80 -83 -100 -100 -30 -26 -27 -21 13 24 119 133 184 304 192 505 6
146 -14 239 -81 379 -71 149 -172 243 -321 301 -61 24 -85 27 -180 28 -115 0
-188 -15 -270 -57 -69 -35 -184 -116 -196 -140 -7 -12 -30 -42 -52 -67 -83
-96 -139 -231 -158 -383 -14 -110 -8 -194 21 -307 30 -117 80 -208 166 -299
123 -131 242 -177 454 -176 78 1 93 4 164 38 44 21 81 35 83 33 8 -8 -122 -75
-263 -135 -254 -109 -519 -144 -779 -102 -72 11 -157 29 -189 41 -268 92 -521
338 -675 655 -48 97 -75 191 -137 480 -23 105 -23 342 -1 480 30 181 84 374
130 465 71 140 146 261 201 325 29 33 59 69 67 81 8 12 61 60 118 107 85 70
136 102 270 170 145 73 180 86 276 105 151 30 150 30 415 27 194 -3 250 -7
321 -23z m3869 -166 c224 -33 396 -104 590 -245 294 -215 479 -481 534 -772
33 -173 30 -544 -5 -729 -29 -153 -126 -354 -248 -517 -85 -113 -217 -246
-301 -303 -19 -13 -51 -37 -70 -54 -73 -62 -331 -171 -505 -212 -108 -25 -359
-31 -465 -9 -283 56 -485 149 -673 310 -88 75 -228 257 -277 360 -133 276
-179 498 -159 767 14 188 40 313 101 483 60 168 72 191 156 320 76 115 201
249 319 341 145 112 441 247 575 263 115 13 324 12 428 -3z m-6374 -1033 c66
-47 139 -105 164 -127 25 -23 70 -61 101 -84 l56 -42 6 -198 c3 -133 10 -221
22 -272 28 -121 115 -410 143 -475 45 -103 168 -285 265 -392 160 -178 298
-277 508 -367 328 -141 963 -138 1294 8 322 141 616 375 852 676 90 115 111
150 179 290 66 138 72 151 84 204 6 26 26 98 44 159 18 62 39 148 46 192 15
90 26 107 92 141 149 76 351 70 498 -15 l65 -37 6 -125 c12 -235 41 -434 85
-574 33 -106 119 -317 154 -380 90 -163 262 -362 410 -475 73 -56 245 -160
263 -160 5 0 32 -12 61 -26 28 -15 89 -40 136 -56 84 -30 88 -30 347 -35 358
-8 554 16 738 90 33 13 94 37 135 53 147 56 363 182 482 281 106 88 257 250
279 298 10 22 33 61 50 85 56 77 165 304 208 432 29 86 46 163 59 258 l17 134
50 29 c141 83 667 357 686 357 13 0 8 -152 -17 -530 -42 -655 -142 -1404 -233
-1748 -6 -21 -20 -84 -31 -142 -24 -118 -26 -125 -117 -410 -36 -113 -86 -254
-110 -315 -25 -60 -65 -159 -90 -219 -25 -60 -66 -141 -92 -180 -27 -39 -63
-97 -80 -128 -47 -84 -151 -175 -299 -261 -180 -106 -229 -129 -397 -187 -234
-80 -338 -107 -583 -155 -351 -67 -425 -75 -872 -87 -409 -12 -1180 -1 -1575
22 -88 6 -374 17 -635 25 -658 21 -1249 63 -1549 110 -165 26 -515 105 -671
152 -108 32 -326 117 -452 176 -148 69 -275 166 -450 341 l-153 153 -82 159
c-45 88 -88 177 -96 199 -174 469 -218 713 -247 1375 -19 441 16 1244 74 1675
8 61 18 134 22 163 4 31 12 52 19 52 7 0 66 -39 131 -87z m-513 -135 c6 -55 1
-236 -13 -468 -7 -120 -10 -466 -8 -980 3 -748 2 -797 -15 -823 -9 -15 -25
-27 -35 -27 -10 0 -54 17 -98 38 -96 47 -160 113 -221 228 -50 96 -70 171 -89
334 -14 124 -21 607 -9 707 38 345 51 409 101 535 65 164 109 242 185 324 85
94 170 173 185 174 7 0 14 -19 17 -42z m9627 -133 c30 -3 82 -14 115 -24 33
-11 73 -22 89 -26 42 -9 92 -64 106 -116 31 -113 26 -474 -10 -784 -10 -89
-32 -305 -51 -500 -26 -268 -99 -547 -169 -643 -41 -57 -132 -109 -221 -126
-107 -21 -222 -28 -253 -16 -36 13 -41 33 -28 109 15 85 56 377 77 551 9 74
25 191 35 260 17 110 43 292 70 485 5 33 32 231 60 440 27 209 52 386 55 393
3 9 16 11 37 8 18 -3 58 -8 88 -11z m-5855 -4525 c360 -22 858 -37 1515 -45
422 -6 894 -20 969 -30 60 -8 60 -9 61 -249 1 -189 -1 -221 -14 -228 -9 -5
-97 -5 -203 0 -104 5 -199 9 -213 9 -25 1 -566 30 -1050 57 -370 21 -633 35
-995 51 -371 18 -500 30 -531 50 -28 18 -44 98 -51 252 -5 111 -5 112 22 139
26 26 30 26 98 20 40 -4 216 -15 392 -26z m-3334 -286 c279 -98 735 -235 929
-279 335 -74 804 -192 985 -247 55 -16 150 -44 210 -63 423 -127 862 -308
1170 -483 340 -193 667 -450 830 -654 l37 -48 -49 0 c-48 0 -54 3 -134 73
-403 351 -1095 716 -1784 941 -336 110 -439 138 -1040 294 -426 111 -694 188
-1000 289 -220 72 -420 145 -433 158 -4 4 56 95 62 95 2 0 100 -34 217 -76z
m8919 20 c22 -31 27 -45 18 -49 -7 -2 -69 -24 -138 -48 -207 -74 -487 -166
-630 -207 -74 -21 -205 -58 -290 -83 -85 -24 -220 -61 -300 -82 -80 -20 -183
-48 -230 -60 -47 -13 -150 -40 -230 -60 -701 -176 -1326 -417 -1839 -709 -249
-142 -384 -236 -588 -407 -93 -79 -110 -89 -144 -89 -22 0 -39 3 -39 6 0 29
188 225 320 335 373 311 840 552 1495 774 277 93 862 256 1135 316 385 84 798
203 1275 369 77 26 143 46 147 44 4 -3 22 -25 38 -50z m-9189 -158 c464 -168
895 -299 1419 -431 824 -207 1340 -381 1820 -613 328 -158 611 -330 882 -535
87 -65 104 -83 90 -88 -52 -20 -69 -14 -178 62 -459 321 -1222 648 -2144 920
-344 101 -447 131 -615 178 -921 256 -1545 449 -1545 476 0 7 17 27 38 44 34
29 42 31 88 26 29 -3 94 -20 145 -39z m9430 13 c21 -17 39 -37 39 -44 0 -23
-609 -216 -1225 -389 -88 -24 -243 -68 -345 -96 -1097 -307 -1674 -511 -2230
-790 -149 -75 -451 -252 -558 -328 -54 -38 -67 -43 -97 -38 -19 4 -35 11 -35
16 0 10 231 182 365 271 466 308 1127 598 1765 774 310 85 345 94 560 149 118
31 253 66 300 79 47 13 139 38 205 56 66 19 176 51 245 72 69 21 179 54 245
74 145 44 384 124 480 160 76 29 199 64 229 64 10 1 36 -13 57 -30z m-9546
-215 c242 -80 344 -111 695 -213 118 -34 253 -73 300 -88 47 -14 123 -36 170
-48 260 -69 407 -110 505 -140 61 -19 182 -55 270 -81 628 -181 1246 -415
1665 -631 186 -96 464 -253 457 -259 -1 -1 -364 118 -807 266 -1049 349 -1651
548 -2150 710 -223 72 -443 144 -490 160 -71 24 -709 231 -927 302 -35 11 -63
23 -63 27 0 22 82 70 120 71 14 0 129 -34 255 -76z m9751 56 c23 -11 49 -29
59 -40 16 -18 8 -22 -327 -131 -188 -61 -593 -194 -898 -295 -305 -100 -913
-301 -1350 -445 -605 -199 -1684 -557 -1887 -625 -37 -13 67 53 252 159 298
171 590 306 945 437 63 23 162 59 220 81 58 21 170 59 250 85 80 25 183 59
230 75 47 15 148 46 225 67 77 22 217 62 310 90 94 28 262 76 375 107 113 31
234 65 270 75 36 11 124 36 195 56 229 64 644 191 845 258 107 36 206 65 219
66 14 0 44 -9 67 -20z m-5981 -170 c94 -6 244 -18 335 -26 91 -8 226 -19 300
-25 74 -5 169 -14 210 -19 41 -6 136 -15 210 -20 74 -5 180 -14 235 -20 131
-13 491 -28 888 -36 175 -4 314 -10 310 -15 -4 -4 -98 -48 -208 -99 -110 -50
-236 -111 -280 -135 -44 -24 -107 -57 -140 -75 -146 -77 -410 -266 -577 -413
l-68 -59 0 48 c0 62 -26 119 -75 166 -47 45 -103 61 -194 56 -63 -3 -77 -8
-128 -44 -100 -70 -148 -169 -113 -235 16 -29 -3 -23 -36 12 -45 48 -234 201
-337 273 -307 214 -852 484 -1220 606 -38 12 -65 26 -60 30 47 44 499 58 948
30z m-4245 -93 c58 -19 229 -76 380 -125 364 -120 1514 -498 2500 -822 818
-269 1380 -457 1461 -487 l46 -17 7 -265 c3 -146 15 -682 26 -1191 11 -509 24
-1150 30 -1425 6 -275 15 -673 20 -885 5 -212 15 -613 21 -893 7 -279 9 -510
5 -514 -3 -4 -95 22 -204 57 -108 35 -269 85 -357 112 -88 27 -236 73 -330
102 -93 30 -235 75 -315 99 -424 132 -1164 369 -1865 598 -837 272 -889 290
-922 304 -35 15 -32 8 -53 165 -18 142 -87 661 -120 899 -17 123 -29 225 -28
226 2 1 55 7 120 13 211 22 344 74 416 165 36 45 58 150 48 231 -13 99 -80
207 -149 240 -32 15 -64 22 -282 61 -116 21 -275 61 -285 72 -5 4 -11 39 -15
77 -8 68 -7 68 16 61 35 -11 323 -8 419 5 105 14 146 26 187 57 l31 24 199
-62 c234 -73 280 -84 316 -75 20 5 27 13 27 30 0 32 -24 49 -105 73 -291 88
-366 116 -359 132 14 34 24 88 24 134 0 27 5 57 11 68 8 17 6 28 -14 57 -13
20 -34 53 -46 74 -29 49 -94 106 -150 131 -25 11 -91 33 -146 50 -328 96 -396
117 -455 138 l-65 24 -12 95 c-6 52 -21 172 -32 265 -48 392 -73 590 -96 765
-65 474 -87 640 -111 840 -13 118 -29 251 -34 295 -6 44 -10 85 -10 92 0 12
58 -4 250 -70z m10650 60 c0 -8 -14 -130 -30 -273 -35 -299 -72 -631 -95 -854
-28 -267 -65 -598 -85 -770 -11 -91 -26 -225 -34 -299 -8 -74 -18 -137 -23
-141 -9 -9 -138 -52 -235 -79 l-68 -18 0 26 c0 24 10 125 60 621 51 503 90
936 97 1086 8 168 3 170 -242 91 -77 -24 -264 -83 -415 -130 -151 -47 -428
-133 -615 -192 -187 -59 -446 -140 -575 -180 -341 -107 -1999 -659 -2037 -678
-18 -10 -35 -27 -38 -40 -8 -37 -25 -680 -35 -1312 -5 -330 -12 -709 -16 -842
-6 -217 -5 -245 10 -268 28 -43 53 -39 386 70 91 29 302 97 470 150 168 53
400 127 515 165 116 37 334 107 485 155 252 80 819 263 1395 450 217 71 233
74 276 64 27 -6 138 -9 263 -7 l216 3 -6 -45 c-15 -95 -10 -91 -125 -122 -57
-15 -169 -39 -249 -53 -176 -31 -238 -54 -286 -107 -63 -70 -79 -118 -79 -238
0 -93 3 -111 25 -155 32 -62 91 -104 197 -139 90 -30 256 -56 360 -56 l73 0
-5 -27 c-14 -87 -24 -166 -30 -223 -9 -88 -71 -627 -90 -770 -8 -63 -17 -152
-21 -197 -4 -46 -12 -87 -18 -92 -22 -17 -1078 -354 -1851 -591 -93 -29 -224
-69 -290 -90 -66 -21 -167 -53 -225 -70 -58 -17 -170 -52 -250 -77 -139 -44
-307 -95 -715 -217 -177 -53 -573 -177 -744 -232 -41 -13 -76 -22 -78 -20 -4
4 12 1104 27 1806 5 256 16 836 25 1290 8 454 19 996 24 1205 6 209 13 496 17
637 5 180 10 258 18 261 75 29 407 140 886 297 322 105 758 249 970 320 212
70 511 169 665 220 514 167 1798 590 1960 645 173 59 185 62 185 42z m-504
-694 c-3 -16 -15 -136 -26 -268 -12 -132 -35 -375 -51 -540 -17 -165 -37 -381
-44 -480 -8 -99 -22 -241 -30 -315 -8 -74 -15 -143 -15 -152 0 -12 -35 -27
-142 -62 -164 -52 -223 -85 -268 -151 -44 -64 -60 -122 -60 -216 0 -96 24
-167 74 -218 l35 -36 -262 -83 c-144 -46 -419 -135 -612 -197 -633 -205 -2090
-673 -2364 -760 l-24 -7 7 363 c17 916 37 1944 39 1945 12 11 1716 571 2217
729 135 42 342 107 460 145 118 37 298 93 400 124 102 31 291 90 420 131 129
41 239 74 243 75 5 0 6 -12 3 -27z m-4928 -465 c-9 -13 -21 -23 -28 -23 -7 0
-19 10 -27 23 -15 22 -15 22 27 22 42 0 42 0 28 -22z m237 -327 c55 -11 111
-24 125 -29 l25 -10 -38 -16 c-21 -9 -77 -26 -125 -37 -76 -18 -109 -20 -262
-16 -146 4 -192 9 -279 31 -57 14 -110 30 -118 35 -16 8 146 47 262 62 92 12
299 2 410 -20z m-827 -184 c41 -26 151 -72 222 -93 276 -80 645 -50 868 72
l62 34 0 -58 c0 -31 -4 -165 -10 -297 -5 -132 -14 -467 -20 -745 -14 -682 -38
-1884 -50 -2495 -19 -987 -32 -1501 -39 -1530 -11 -45 -104 -116 -188 -142
-112 -35 -202 -46 -320 -40 -178 9 -303 54 -402 143 l-46 41 -7 309 c-3 170
-11 458 -17 639 -18 536 -39 1359 -61 2320 -11 495 -24 1078 -30 1295 -11 441
-12 570 -5 570 3 0 22 -11 43 -23z m-4859 -258 c11 -74 21 -151 23 -173 l3
-39 -45 -3 c-108 -7 -166 -17 -211 -34 -27 -11 -49 -17 -49 -14 0 33 244 414
257 400 1 -1 11 -63 22 -137z m11024 -34 c70 -108 142 -235 133 -235 -3 0 -28
9 -55 20 -28 11 -92 25 -142 32 l-91 12 5 35 c3 20 11 83 17 141 6 58 13 115
16 128 l5 23 23 -28 c13 -15 53 -73 89 -128z m-11063 -390 c-94 -48 -167 -157
-194 -286 l-12 -62 -22 34 c-33 55 -72 142 -72 165 0 64 198 171 320 173 21 0
17 -4 -20 -24z m11008 10 c76 -18 132 -45 192 -93 57 -46 60 -51 53 -82 -8
-35 -76 -163 -89 -167 -6 -2 -14 15 -17 39 -16 118 -91 231 -191 289 -58 33
-44 37 52 14z m-10758 -206 c69 -23 128 -44 132 -47 4 -4 -2 -38 -13 -77 -15
-51 -21 -104 -22 -192 -1 -74 -6 -123 -12 -123 -32 1 -178 44 -225 68 -79 39
-100 75 -100 173 0 95 27 176 71 214 17 14 34 25 37 25 4 0 63 -18 132 -41z
m10622 21 c38 -30 69 -113 75 -201 5 -67 3 -82 -17 -117 -15 -26 -39 -49 -69
-66 -44 -23 -207 -76 -237 -76 -11 0 -14 22 -14 108 0 93 -10 169 -34 262 -7
24 -3 26 111 66 139 48 152 50 185 24z m-11246 -132 c9 -18 53 -96 99 -173
110 -185 120 -227 120 -495 0 -154 -4 -202 -16 -230 l-15 -34 -47 43 c-95 88
-182 247 -217 397 -23 99 -28 266 -10 365 13 69 47 159 61 159 5 0 16 -15 25
-32z m11752 -15 c36 -88 47 -153 46 -283 -2 -165 -21 -249 -86 -380 -42 -82
-69 -121 -126 -180 -87 -89 -84 -91 -102 80 -8 82 -8 145 0 234 18 192 32 248
83 316 25 32 68 104 96 159 29 56 56 101 60 101 5 0 18 -21 29 -47z m-10710
-3 c277 -74 302 -90 302 -203 0 -68 -18 -91 -85 -107 -64 -15 -328 -24 -380
-13 l-40 9 0 110 c0 107 26 244 45 244 5 0 76 -18 158 -40z m9791 8 c34 -107
40 -309 10 -330 -19 -13 -353 -3 -406 12 -62 18 -78 41 -77 109 0 31 6 67 13
80 16 29 89 63 211 96 52 15 120 34 150 44 80 26 87 25 99 -11z m-10445 -437
c17 -10 64 -29 104 -40 43 -13 72 -27 72 -35 0 -8 3 -27 6 -43 l6 -30 -66 -5
c-40 -4 -79 -14 -100 -26 -41 -25 -40 -28 -55 91 -17 121 -18 119 33 88z
m10972 -8 c-3 -16 -8 -65 -12 -110 -3 -46 -8 -83 -10 -83 -3 0 -23 9 -46 21
-22 11 -65 23 -95 26 l-54 6 3 44 3 45 100 38 c55 21 104 38 108 39 5 0 6 -11
3 -26z m-10750 -379 c162 -58 147 -46 137 -107 -4 -28 -8 -108 -8 -176 l0
-123 -45 5 c-87 11 -207 55 -234 88 -44 52 -60 164 -35 253 10 38 57 96 77 96
5 0 54 -16 108 -36z m10632 2 c74 -85 61 -269 -23 -329 -32 -23 -150 -64 -211
-73 l-47 -7 6 59 c6 54 -5 211 -18 275 -6 25 -2 27 112 66 65 23 125 41 134
42 10 1 30 -14 47 -33z m-10298 -101 c30 -8 120 -26 200 -40 80 -14 151 -32
159 -40 8 -8 16 -39 19 -69 4 -51 2 -58 -25 -85 -45 -44 -201 -80 -354 -81
l-86 0 -7 80 c-7 79 -3 141 15 213 11 43 7 41 79 22z m9884 -2 c15 -39 26
-173 20 -242 l-7 -74 -126 6 c-132 7 -262 32 -305 61 -27 17 -32 37 -27 111 4
55 16 73 54 79 149 23 298 51 327 62 48 17 57 17 64 -3z m-6950 -2944 c4 -4
-5 -37 -18 -75 -14 -38 -41 -123 -61 -189 -20 -66 -46 -146 -57 -177 l-20 -58
-123 0 c-67 0 -124 2 -127 5 -9 10 135 481 168 546 l12 25 110 -35 c61 -20
113 -39 116 -42z m4250 -16 c14 -43 36 -118 50 -168 14 -49 39 -131 56 -182
46 -142 53 -133 -100 -133 l-129 0 -10 38 c-6 20 -15 60 -21 87 -6 28 -28 104
-49 170 -22 66 -42 135 -46 152 -3 18 -7 36 -8 39 -2 7 187 71 215 73 12 1 23
-20 42 -76z m-3984 -66 c86 -29 95 -34 92 -55 -3 -22 -90 -245 -105 -269 -9
-14 -151 -11 -191 6 -20 8 -27 16 -23 29 3 9 22 69 41 132 44 144 63 190 79
189 6 0 55 -15 107 -32z m3606 -57 c32 -96 61 -230 56 -252 -3 -14 -14 -18
-50 -19 -26 0 -66 -3 -89 -5 -40 -5 -44 -3 -63 28 -24 40 -100 231 -100 252 0
16 170 77 204 73 13 -1 25 -22 42 -77z m-3695 -503 c43 -29 96 -126 104 -193
10 -72 -17 -195 -52 -240 -65 -86 -165 -83 -221 7 -31 52 -62 165 -62 228 0
47 6 67 38 121 56 97 123 124 193 77z m3728 12 c36 -13 94 -83 112 -136 7 -21
10 -72 7 -127 -5 -99 -22 -144 -77 -203 -25 -28 -37 -33 -76 -33 -64 0 -79 11
-136 97 -45 70 -49 80 -49 137 0 82 15 129 61 198 28 41 49 60 72 67 44 13 49
13 86 0z m-4266 -66 l159 -6 -7 -121 c-6 -114 -5 -125 19 -193 40 -113 55
-105 -163 -101 l-190 3 -31 30 c-35 34 -57 99 -66 195 -6 60 -4 71 26 130 37
73 46 83 75 75 11 -4 91 -9 178 -12z m4947 -45 c30 -70 35 -116 20 -190 -18
-95 -54 -164 -92 -177 -17 -6 -101 -11 -190 -11 -128 0 -160 3 -164 14 -3 8 2
60 11 116 8 56 18 144 22 195 l6 94 106 4 c58 1 140 4 182 5 l77 2 22 -52z
m-748 -585 l87 -16 -5 -46 c-6 -50 -16 -92 -97 -411 -30 -118 -58 -233 -61
-255 -7 -43 -32 -136 -47 -173 l-9 -23 -50 27 c-73 39 -73 40 -60 136 6 46 16
117 21 158 6 41 21 143 34 225 13 83 31 197 40 255 18 110 28 140 48 140 7 0
51 -7 99 -17z m509 5 c18 -14 22 4 -49 -258 -17 -63 -52 -196 -77 -295 -25
-99 -63 -241 -85 -315 -22 -74 -43 -156 -46 -183 -9 -65 -23 -71 -164 -72
l-115 0 -3 63 c-2 37 4 86 13 117 8 30 24 94 34 142 53 245 105 463 122 508
11 28 24 79 29 115 6 36 18 88 26 115 9 28 17 55 19 60 4 16 276 19 296 3z
m-4394 -78 c13 -41 34 -127 48 -190 14 -63 34 -146 44 -185 10 -38 33 -131 50
-205 17 -74 42 -183 56 -242 31 -134 33 -203 6 -218 -24 -12 -122 -13 -175 0
-77 17 -78 20 -231 615 -41 160 -84 313 -94 340 -21 55 -35 147 -24 158 4 4
72 6 152 5 l144 -3 24 -75z m314 25 c9 -27 26 -108 37 -180 11 -71 31 -193 45
-270 35 -198 49 -342 37 -366 -12 -21 -60 -49 -84 -49 -26 0 -46 43 -72 161
-14 63 -41 173 -60 244 -38 147 -99 401 -108 457 -6 36 -6 37 26 42 45 8 108
13 137 12 20 -1 28 -10 42 -51z m3284 -1009 c41 -17 67 -65 84 -152 15 -79 0
-129 -48 -161 -70 -47 -134 -23 -180 68 -35 71 -38 107 -12 164 21 47 48 73
87 85 16 4 30 9 32 9 1 1 18 -5 37 -13z m-2999 -27 c26 -28 29 -37 32 -113 5
-108 -18 -169 -74 -192 -64 -27 -116 0 -149 78 -19 48 -19 112 1 171 21 62 54
87 113 87 40 0 52 -5 77 -31z m-567 -239 c134 -14 163 -29 221 -116 37 -57 55
-74 101 -97 31 -16 92 -34 135 -42 67 -12 84 -11 121 1 24 8 48 12 53 9 12 -7
13 -92 2 -99 -28 -17 -481 -43 -982 -56 -206 -6 -404 -12 -439 -15 l-64 -6 5
50 c6 64 40 108 115 154 76 46 393 196 463 219 57 19 56 19 269 -2z m4356 -27
c66 -26 143 -61 170 -77 28 -16 89 -50 136 -75 47 -25 110 -67 139 -93 48 -42
53 -51 52 -84 -1 -21 -6 -42 -11 -47 -8 -8 -920 8 -996 19 -16 2 -115 8 -220
14 -104 5 -207 13 -227 16 l-38 7 0 58 c0 68 4 70 98 43 127 -37 287 28 333
137 12 27 27 53 34 59 20 16 282 68 350 69 49 1 82 -7 180 -46z"/>
<path d="M11705 15496 c-177 -43 -329 -166 -410 -331 -68 -136 -80 -194 -80
-370 0 -169 16 -240 83 -369 119 -230 372 -359 607 -311 157 33 242 80 349
196 117 127 176 271 191 469 11 143 -36 327 -116 451 -87 133 -219 232 -359
265 -68 16 -198 16 -265 0z"/>
<path d="M6807 13506 c-97 -36 -166 -149 -145 -238 24 -110 87 -188 170 -213
60 -17 90 -14 149 16 29 14 109 90 109 103 0 2 5 27 10 57 8 41 7 64 -5 105
-37 129 -177 211 -288 170z"/>
<path d="M13195 13367 c-40 -18 -103 -89 -111 -124 -3 -16 -8 -34 -10 -42 -9
-30 17 -90 56 -124 100 -91 245 -67 296 50 29 64 30 95 5 150 -36 79 -158 125
-236 90z"/>
<path d="M9375 13179 c-224 -11 -386 -33 -490 -66 -135 -42 -242 -128 -297
-236 -26 -52 -32 -76 -35 -152 -5 -84 -3 -94 24 -145 37 -71 122 -131 220
-155 72 -17 141 -19 1443 -45 305 -6 632 -13 725 -16 167 -5 333 5 408 26 46
14 101 61 139 119 25 41 28 53 28 134 0 83 -3 94 -35 156 -50 94 -104 153
-189 204 -95 57 -200 91 -356 116 -338 54 -1133 84 -1585 60z"/>
<path d="M7433 12859 c-118 -58 -147 -199 -67 -316 46 -67 84 -94 138 -100 58
-7 96 15 147 83 34 46 42 66 46 115 8 80 -14 134 -77 193 -44 41 -54 46 -97
46 -29 0 -65 -9 -90 -21z"/>
<path d="M12503 12626 c-165 -52 -211 -245 -87 -370 42 -42 140 -86 193 -86
59 0 122 32 164 83 41 51 57 95 57 159 0 67 -18 105 -77 159 -69 65 -157 84
-250 55z"/>
<path d="M5396 9519 c-19 -28 -4 -64 33 -77 125 -47 640 -208 653 -204 23 6
31 33 19 65 -9 23 -41 36 -331 131 -176 58 -329 106 -340 106 -10 0 -26 -10
-34 -21z"/>
<path d="M6338 9229 c-22 -13 -23 -47 -2 -70 9 -10 76 -37 148 -59 72 -23 303
-98 513 -166 225 -74 393 -124 410 -122 23 2 29 8 31 35 2 24 -2 35 -20 47
-23 15 -197 74 -548 186 -107 35 -262 85 -345 111 -163 53 -162 53 -187 38z"/>
<path d="M5463 9183 c-19 -7 -16 -50 5 -70 10 -10 82 -38 161 -62 153 -48 173
-48 179 1 4 36 -20 51 -158 97 -118 39 -158 46 -187 34z"/>
<path d="M6056 8978 c-16 -22 -10 -44 16 -65 7 -6 144 -52 303 -103 460 -146
658 -210 683 -221 31 -12 66 -11 80 3 20 20 14 56 -13 74 -28 18 -1008 334
-1037 334 -9 0 -24 -10 -32 -22z"/>
<path d="M5492 8858 c-28 -28 5 -77 61 -93 12 -4 167 -54 344 -112 349 -114
363 -116 363 -53 0 22 -7 33 -27 44 -46 23 -677 226 -704 226 -14 0 -30 -5
-37 -12z"/>
<path d="M7672 8798 c-19 -19 -14 -56 11 -73 12 -8 141 -54 287 -101 146 -46
297 -95 335 -108 39 -13 158 -52 265 -86 107 -34 223 -72 256 -83 52 -18 66
-19 89 -9 23 11 26 17 20 40 -8 36 -24 47 -114 76 -42 13 -251 81 -466 151
-214 69 -444 143 -510 165 -128 43 -154 47 -173 28z"/>
<path d="M7386 8558 c-16 -22 -10 -44 17 -67 17 -14 315 -109 369 -117 59 -10
90 32 53 69 -15 15 -379 137 -409 137 -8 0 -22 -10 -30 -22z"/>
<path d="M6484 8523 c-6 -21 -2 -31 18 -48 23 -20 262 -101 763 -260 271 -85
750 -239 840 -270 39 -13 194 -63 345 -110 151 -48 308 -98 349 -111 81 -27
128 -28 144 -3 8 13 6 24 -6 43 -14 21 -48 35 -194 82 -98 30 -308 98 -468
149 -159 52 -411 133 -560 180 -148 48 -364 118 -480 155 -565 183 -685 220
-713 220 -26 0 -33 -5 -38 -27z"/>
<path d="M5523 8524 c-3 -9 -2 -28 3 -43 8 -24 32 -34 269 -113 143 -47 424
-139 625 -203 201 -64 419 -135 484 -157 97 -32 124 -37 143 -29 26 12 32 61
11 79 -7 5 -128 47 -268 92 -333 107 -690 224 -969 316 -228 76 -287 87 -298
58z"/>
<path d="M8057 8353 c-16 -15 -6 -63 16 -77 19 -12 129 -49 487 -161 47 -15
141 -45 208 -67 102 -33 128 -38 148 -29 28 13 31 41 7 69 -19 22 -53 34 -288
107 -82 26 -231 73 -330 106 -168 55 -232 69 -248 52z"/>
<path d="M7305 7946 c-16 -24 -16 -28 -1 -50 12 -20 47 -35 163 -71 135 -42
460 -148 607 -196 211 -71 266 -77 266 -31 0 45 -28 61 -208 117 -97 31 -215
69 -262 85 -130 43 -492 158 -522 165 -21 6 -30 2 -43 -19z"/>
<path d="M5617 7913 c-12 -11 -8 -50 6 -61 6 -5 73 -29 147 -52 74 -22 203
-63 285 -91 197 -64 261 -65 240 -2 -9 25 -22 32 -130 66 -66 21 -196 63 -290
93 -155 49 -241 65 -258 47z"/>
<path d="M6497 7653 c-13 -12 -7 -50 11 -66 19 -18 129 -54 382 -126 96 -27
263 -77 371 -110 108 -33 215 -63 238 -67 63 -10 92 26 55 68 -18 19 -66 35
-469 153 -143 42 -320 94 -393 116 -127 38 -181 46 -195 32z"/>
<path d="M6237 7410 c-18 -26 -9 -53 23 -70 11 -6 90 -30 177 -54 143 -39 509
-148 720 -213 45 -14 90 -22 101 -19 52 17 24 81 -44 104 -21 7 -140 42 -264
78 -124 36 -274 80 -335 98 -345 105 -356 107 -378 76z"/>
<path d="M7783 7284 c-7 -3 -13 -19 -13 -35 0 -43 -15 -38 465 -178 116 -34
248 -73 295 -86 47 -13 158 -45 248 -71 130 -38 168 -46 190 -38 35 12 36 50
2 75 -14 10 -162 57 -330 104 -306 87 -379 108 -630 185 -135 41 -204 54 -227
44z"/>
<path d="M7500 7041 c-24 -47 5 -65 192 -120 177 -51 211 -57 232 -36 9 9 16
23 16 30 0 20 -47 54 -94 66 -22 6 -92 26 -155 45 -131 39 -176 43 -191 15z"/>
<path d="M6646 7014 c-20 -19 -20 -34 -1 -61 16 -23 38 -30 330 -113 99 -28
243 -71 320 -95 77 -24 208 -62 290 -85 83 -23 213 -62 290 -85 77 -24 194
-57 260 -75 66 -18 176 -49 245 -70 302 -92 583 -165 605 -156 24 9 19 63 -7
80 -20 12 -205 68 -408 122 -64 17 -241 69 -645 188 -159 47 -387 113 -505
147 -118 34 -249 72 -290 84 -233 69 -459 135 -464 135 -2 0 -12 -7 -20 -16z"/>
<path d="M5730 6965 c-16 -19 -8 -40 24 -60 21 -14 193 -69 616 -197 52 -15
145 -42 205 -59 61 -17 166 -48 235 -69 198 -60 293 -88 327 -95 37 -7 73 8
73 32 0 32 -34 53 -129 82 -141 44 -404 122 -586 176 -88 25 -194 57 -235 70
-244 77 -451 135 -482 135 -19 0 -41 -7 -48 -15z"/>
<path d="M8142 6871 c-8 -5 -12 -21 -10 -37 3 -27 10 -31 98 -61 105 -36 368
-113 470 -138 36 -9 100 -27 142 -41 97 -32 142 -30 146 7 4 32 -17 55 -61 68
-156 46 -670 194 -697 201 -44 12 -71 12 -88 1z"/>
<path d="M7420 6465 c-6 -8 -9 -23 -5 -35 10 -33 42 -47 235 -100 58 -15 173
-49 255 -74 223 -69 442 -126 481 -126 39 0 42 11 14 57 -16 27 -31 36 -92 53
-140 40 -354 102 -463 135 -359 108 -402 117 -425 90z"/>
<path d="M6189 6351 c-22 -18 -22 -19 -6 -44 13 -20 38 -33 105 -52 48 -15
121 -37 162 -50 41 -13 134 -40 205 -59 72 -20 164 -47 205 -61 103 -35 171
-42 190 -20 12 15 12 20 -1 43 -11 20 -30 30 -79 44 -36 10 -116 34 -179 54
-62 20 -143 44 -180 54 -36 9 -138 38 -225 64 -88 25 -163 46 -167 46 -4 0
-17 -8 -30 -19z"/>
<path d="M5813 6173 c-19 -7 -16 -48 5 -65 9 -8 31 -20 47 -26 58 -22 402
-112 427 -112 55 0 63 68 11 88 -16 7 -77 25 -138 41 -60 17 -148 42 -194 56
-80 24 -131 30 -158 18z"/>
<path d="M7289 6048 c-29 -23 -31 -48 -6 -70 15 -14 130 -51 328 -108 167 -49
446 -129 619 -180 523 -152 746 -211 766 -203 19 7 27 39 15 61 -13 24 -19 27
-306 107 -132 37 -283 80 -335 96 -52 16 -174 51 -270 78 -96 27 -213 61 -260
76 -47 14 -180 52 -296 85 -116 33 -217 62 -225 65 -8 3 -22 0 -30 -7z"/>
<path d="M6566 5967 c-45 -33 9 -82 127 -116 39 -12 92 -28 117 -36 62 -20
318 -96 475 -140 72 -20 156 -45 188 -56 75 -25 133 -25 146 -1 27 50 -20 68
-534 217 -188 55 -406 118 -485 142 -8 2 -23 -2 -34 -10z"/>
<path d="M5830 5859 c-9 -16 -8 -26 4 -44 16 -25 58 -40 371 -130 88 -26 252
-74 365 -107 113 -33 221 -65 240 -70 19 -5 60 -18 91 -28 65 -22 97 -17 105
17 9 34 -19 61 -85 79 -31 9 -121 35 -201 59 -80 24 -233 69 -340 100 -107 32
-260 77 -340 101 -164 50 -194 53 -210 23z"/>
<path d="M7826 5591 c-41 -46 -11 -68 174 -125 205 -63 252 -69 274 -33 25 40
-2 53 -284 137 -139 42 -145 42 -164 21z"/>
<path d="M5870 5551 c-14 -27 -5 -58 22 -72 22 -12 536 -166 848 -255 107 -31
236 -69 285 -84 50 -16 171 -52 270 -80 99 -27 200 -57 225 -65 150 -48 374
-108 426 -112 52 -5 62 -3 68 12 9 26 -1 50 -27 63 -12 6 -119 39 -237 73
-118 34 -339 97 -490 141 -151 44 -318 93 -370 108 -242 70 -396 115 -659 194
-348 105 -346 104 -361 77z"/>
<path d="M7218 5464 c-17 -16 -7 -54 16 -70 27 -17 140 -52 466 -145 118 -34
256 -74 305 -89 50 -16 173 -51 275 -80 102 -29 253 -71 335 -95 372 -107 398
-113 420 -95 18 15 19 41 3 63 -8 10 -89 38 -208 71 -107 29 -249 70 -315 89
-66 20 -199 58 -295 85 -322 91 -704 203 -795 231 -96 31 -195 48 -207 35z"/>
<path d="M8472 5408 c-22 -22 -14 -57 17 -72 36 -19 424 -132 482 -141 37 -6
48 -3 63 14 17 19 18 22 2 45 -9 14 -32 30 -53 35 -21 6 -134 38 -252 71 -228
64 -241 66 -259 48z"/>
<path d="M5887 5273 c-4 -3 -7 -19 -7 -34 0 -21 7 -32 28 -43 35 -18 344 -118
487 -158 60 -17 132 -39 158 -49 57 -23 96 -24 123 -5 19 14 19 15 -2 43 -24
32 -92 59 -329 128 -82 24 -205 62 -273 85 -118 38 -171 48 -185 33z"/>
<path d="M6913 4973 c-7 -2 -13 -18 -13 -34 0 -36 22 -48 165 -90 95 -27 109
-29 123 -16 11 11 12 22 5 43 -11 32 -77 63 -191 89 -67 16 -70 16 -89 8z"/>
<path d="M8210 4865 c-17 -21 -5 -60 23 -72 58 -27 748 -223 783 -223 30 0 54
30 44 56 -10 25 -29 33 -190 79 -197 56 -284 81 -446 130 -164 49 -195 53
-214 30z"/>
<path d="M7590 4755 c-16 -20 -5 -62 21 -76 11 -6 84 -28 162 -50 78 -21 194
-54 257 -72 63 -19 221 -64 350 -101 129 -37 273 -79 320 -93 47 -14 139 -41
205 -59 108 -30 122 -31 143 -18 12 8 22 19 22 24 0 5 -10 20 -22 34 -25 28
-196 82 -713 226 -86 24 -487 140 -641 185 -64 19 -88 19 -104 0z"/>
<path d="M13994 6711 c-79 -48 -86 -127 -19 -201 13 -14 26 -39 29 -55 l7 -31
-97 -27 c-222 -62 -288 -118 -308 -259 -6 -42 -12 -50 -48 -70 -78 -43 -96
-91 -83 -222 8 -94 24 -116 88 -123 45 -5 47 -7 52 -42 16 -99 62 -135 171
-133 40 1 76 -3 79 -8 16 -25 -8 -49 -72 -71 -54 -19 -73 -32 -100 -67 -60
-79 -33 -127 41 -74 62 44 111 67 221 101 266 81 411 106 469 80 33 -15 58 4
54 40 -4 38 -48 56 -135 55 -62 0 -72 3 -77 19 -3 13 3 21 22 29 159 65 186
96 207 234 6 37 10 42 45 53 46 14 87 59 96 107 3 19 4 72 2 116 -4 73 -8 84
-31 104 -15 13 -47 26 -72 29 -33 5 -45 12 -45 24 0 10 -7 39 -16 65 -30 88
-111 110 -276 78 -54 -10 -100 -16 -103 -14 -13 13 -4 68 13 79 25 15 52 74
52 113 0 46 -47 90 -97 90 -21 0 -52 -9 -69 -19z m71 -96 c0 -25 -4 -30 -25
-30 -19 0 -26 6 -28 24 -4 25 13 43 38 38 9 -1 15 -13 15 -32z m301 -243 c26
-17 35 -60 44 -214 10 -172 2 -310 -22 -348 -24 -38 -186 -90 -462 -146 -156
-32 -181 -31 -203 3 -16 24 -18 58 -21 268 -4 233 -3 241 18 268 46 58 151 98
395 151 109 24 230 33 251 18z m178 -168 c12 -30 6 -150 -7 -169 -26 -34 -37
-8 -37 84 0 48 3 91 7 94 11 12 31 7 37 -9z m-944 -302 c0 -93 -3 -104 -26
-95 -10 4 -14 26 -14 87 0 84 3 96 27 96 10 0 13 -21 13 -88z m580 -296 c0 -8
-5 -18 -10 -21 -9 -6 -209 -65 -218 -65 -2 0 -2 12 0 27 3 28 8 30 221 72 4 0
7 -5 7 -13z"/>
<path d="M14204 6226 c-43 -19 -64 -53 -64 -103 0 -56 26 -83 78 -83 47 0 80
22 98 66 21 49 17 72 -15 105 -33 32 -51 35 -97 15z"/>
<path d="M13853 6145 c-37 -16 -73 -68 -73 -106 0 -35 34 -76 69 -84 77 -17
157 87 121 156 -10 18 -60 49 -77 49 -4 -1 -23 -7 -40 -15z"/>
<path d="M14185 5918 c-22 -5 -98 -23 -170 -40 -145 -34 -181 -49 -190 -78
-16 -49 17 -51 169 -10 61 16 145 36 186 45 99 21 139 59 91 85 -23 12 -32 11
-86 -2z"/>
<path d="M13000 6159 c-36 -11 -162 -51 -280 -88 -219 -70 -586 -184 -855
-266 -82 -26 -188 -59 -235 -74 -47 -15 -111 -36 -143 -45 -39 -12 -63 -25
-74 -43 -16 -25 -16 -26 7 -45 16 -13 32 -17 49 -13 24 5 462 140 951 292 113
35 288 88 390 119 235 70 326 102 340 119 6 8 10 24 8 37 -3 20 -9 23 -48 25
-25 1 -74 -7 -110 -18z"/>
<path d="M13045 5915 c-70 -19 -387 -117 -1060 -325 -104 -32 -263 -82 -353
-109 -90 -28 -169 -51 -176 -51 -17 0 -46 -33 -46 -53 0 -29 30 -49 64 -42 36
8 231 67 426 130 74 24 167 52 205 63 309 85 1040 319 1055 337 16 19 9 45
-15 60 -17 11 -33 9 -100 -10z"/>
<path d="M13095 5670 c-16 -4 -104 -30 -195 -58 -91 -28 -253 -78 -360 -111
-214 -66 -244 -85 -204 -125 25 -25 69 -19 224 30 80 25 213 66 295 91 235 70
295 93 313 121 15 23 15 26 -7 43 -13 11 -26 19 -30 18 -3 -1 -19 -4 -36 -9z"/>
<path d="M14852 5390 c-18 -11 -35 -27 -39 -36 -4 -12 -8 -12 -13 -4 -5 9 -20
10 -44 6 l-36 -7 0 -179 c0 -99 4 -180 9 -180 4 0 22 5 39 11 l30 10 4 134 c3
114 6 136 22 154 23 25 51 27 60 5 3 -9 6 -72 6 -141 0 -110 2 -124 16 -119 9
3 27 9 41 12 l24 7 -3 159 c-3 144 -5 161 -22 174 -27 19 -55 18 -94 -6z"/>
<path d="M12015 5343 c-27 -9 -156 -49 -286 -89 -130 -41 -239 -74 -243 -74
-19 0 -75 -33 -80 -47 -9 -22 21 -63 45 -63 12 0 69 16 128 36 58 19 185 60
281 89 240 73 288 92 295 116 16 48 -44 61 -140 32z"/>
<path d="M14290 5347 c-31 -11 -35 -16 -38 -51 l-3 -38 38 7 c52 9 53 11 53
56 0 43 0 43 -50 26z"/>
<path d="M14505 5281 c-22 -10 -48 -27 -57 -38 -29 -32 -48 -102 -48 -177 0
-130 49 -178 145 -142 78 30 115 102 115 224 0 133 -54 180 -155 133z m66 -91
c11 -39 10 -111 -2 -153 -13 -49 -46 -65 -72 -34 -16 18 -18 35 -15 103 3 91
17 117 57 112 17 -2 27 -11 32 -28z"/>
<path d="M12624 5269 c-59 -21 -677 -211 -839 -259 -60 -18 -135 -40 -165 -50
-30 -10 -81 -26 -114 -35 -71 -20 -112 -55 -96 -84 18 -35 46 -33 177 8 70 22
182 57 248 76 66 20 224 68 350 106 127 38 268 82 315 98 47 16 110 37 140 46
65 20 95 38 110 65 9 16 6 22 -19 35 -36 18 -41 18 -107 -6z"/>
<path d="M14103 5248 c-31 -10 -33 -14 -33 -55 0 -37 -4 -45 -25 -53 -20 -8
-25 -16 -25 -45 0 -33 1 -34 25 -25 l25 10 0 -121 c0 -136 7 -159 50 -159 52
0 80 19 80 55 0 26 -4 31 -22 31 -22 -1 -23 2 -26 105 l-3 107 31 10 c26 9 30
16 30 46 0 40 1 40 -34 26 -26 -9 -26 -9 -26 35 0 25 -3 45 -7 44 -5 -1 -23
-6 -40 -11z"/>
<path d="M14290 5216 l-35 -13 -3 -183 c-2 -171 -1 -182 15 -175 10 3 30 9 46
12 l27 6 0 183 c0 101 -3 184 -7 183 -5 0 -24 -6 -43 -13z"/>
<path d="M13613 5097 c-31 -9 -33 -13 -33 -54 0 -37 -4 -45 -25 -55 -19 -9
-25 -19 -25 -43 0 -29 3 -32 25 -27 l25 4 0 -131 c0 -127 1 -132 23 -142 16
-7 33 -6 62 4 34 12 40 18 43 47 3 30 2 32 -22 26 l-26 -6 0 115 c0 114 0 115
25 121 21 5 25 12 25 40 0 32 -2 35 -27 32 -25 -3 -28 0 -25 24 5 43 -8 56
-45 45z"/>
<path d="M13845 5076 c-53 -24 -77 -51 -89 -98 -5 -21 -3 -28 8 -28 28 0 66
20 66 35 0 19 46 49 65 41 9 -3 15 -18 15 -36 0 -27 -6 -33 -47 -51 -81 -35
-123 -87 -123 -154 0 -41 36 -85 70 -85 26 0 72 23 90 45 9 11 15 13 20 4 6
-9 17 -8 45 1 34 11 37 15 31 42 -3 17 -6 84 -6 149 0 106 -2 121 -20 139 -26
26 -64 25 -125 -4z m65 -216 c0 -44 -27 -80 -59 -80 -22 0 -35 30 -26 60 5 15
61 56 83 60 1 0 2 -18 2 -40z"/>
<path d="M13356 4920 c-21 -18 -36 -26 -38 -19 -3 9 -13 9 -41 0 l-37 -13 0
-179 c0 -98 4 -179 9 -179 4 0 22 5 40 11 l31 11 0 126 c0 147 10 177 55 177
l30 0 3 -138 c3 -137 3 -138 25 -132 12 4 30 9 40 11 15 5 17 21 17 150 0 175
-10 203 -72 204 -16 0 -41 -12 -62 -30z"/>
<path d="M13075 4843 c-82 -20 -131 -81 -145 -180 -9 -70 3 -159 26 -184 26
-29 100 -26 147 6 35 25 77 88 77 119 0 25 -63 -2 -85 -38 -22 -33 -62 -46
-76 -24 -5 7 -9 27 -9 43 0 30 2 31 85 54 l85 24 0 56 c0 55 -27 121 -49 121
-5 0 -15 2 -23 4 -7 2 -22 1 -33 -1z m12 -75 c6 -7 13 -23 16 -36 6 -24 -7
-33 -68 -48 -22 -5 -25 -3 -25 20 0 26 39 76 58 76 5 0 14 -6 19 -12z"/>
<path d="M12755 4738 c-11 -6 -32 -22 -46 -35 -17 -16 -29 -21 -33 -14 -13 20
-73 12 -104 -14 -17 -14 -32 -21 -34 -15 -2 6 -16 6 -40 -1 l-38 -10 0 -179
c0 -195 -1 -191 54 -170 l26 10 0 129 c0 122 1 132 23 157 16 18 30 25 40 21
15 -6 17 -25 17 -142 0 -146 0 -146 54 -125 l26 10 0 128 c0 99 3 132 16 150
18 25 59 29 68 6 3 -9 6 -70 6 -136 l0 -120 33 7 c17 4 35 9 40 12 11 7 8 268
-4 300 -5 15 -16 31 -22 35 -17 11 -59 9 -82 -4z"/>
<path d="M12328 4608 l-28 -10 0 -137 c0 -123 -2 -140 -19 -155 -11 -10 -28
-16 -38 -14 -16 3 -18 17 -21 141 -3 147 -3 148 -56 127 l-26 -10 0 -155 c0
-142 2 -157 20 -175 11 -11 27 -20 35 -20 25 0 79 25 94 44 9 10 17 13 21 7 4
-7 18 -7 43 0 l37 10 0 179 c0 198 2 192 -62 168z"/>
<path d="M11939 4487 c-78 -41 -121 -162 -99 -278 13 -66 36 -91 83 -91 76 0
147 62 163 141 6 30 5 34 -10 28 -10 -4 -29 -10 -42 -13 -13 -3 -24 -14 -24
-23 0 -26 -29 -61 -50 -61 -32 0 -42 36 -38 127 3 75 6 87 26 104 18 14 28 16
43 9 10 -6 19 -18 19 -26 0 -11 6 -14 23 -9 12 4 30 9 40 11 21 6 22 26 2 63
-24 48 -68 54 -136 18z"/>
<path d="M11253 4389 l-63 -20 0 -239 c0 -137 4 -240 9 -240 23 0 153 50 180
69 104 74 139 344 56 427 -30 30 -92 31 -182 3z m108 -68 c23 -18 24 -26 24
-128 0 -75 -5 -117 -15 -138 -17 -34 -80 -79 -92 -67 -5 5 -7 82 -6 172 l3
164 25 7 c37 10 36 11 61 -10z"/>
<path d="M11635 4391 c-47 -22 -69 -44 -89 -93 -38 -90 -28 -207 20 -255 21
-21 32 -25 64 -20 94 12 149 82 158 199 6 86 -4 135 -33 164 -29 29 -65 30
-120 5z m70 -117 c9 -63 -3 -142 -26 -165 -23 -23 -33 -24 -53 -3 -12 12 -16
36 -16 100 0 77 2 87 25 110 35 35 60 20 70 -42z"/>
<path d="M13735 8986 c-71 -36 -104 -74 -188 -216 -130 -220 -377 -610 -387
-610 -3 0 -18 10 -33 23 l-28 22 17 78 c15 73 15 80 -1 97 -24 27 -164 82
-191 76 -12 -3 -44 -35 -70 -71 -41 -56 -52 -65 -78 -65 -43 0 -51 8 -71 70
-18 58 -45 90 -75 90 -37 0 -162 -33 -175 -47 -16 -15 -30 -63 -39 -134 -5
-36 -12 -49 -32 -58 -41 -18 -62 -13 -108 29 -24 22 -51 40 -60 40 -47 0 -186
-115 -186 -154 0 -12 9 -45 20 -74 26 -69 25 -86 -7 -121 -28 -29 -28 -29
-102 -21 -46 6 -81 5 -92 -1 -23 -12 -89 -147 -89 -183 0 -29 30 -62 87 -97
37 -23 37 -21 23 -69 -9 -30 -19 -39 -76 -65 -37 -16 -73 -35 -80 -43 -18 -18
-19 -177 -1 -212 10 -21 25 -28 89 -40 81 -16 92 -22 102 -56 5 -16 -6 -37
-44 -84 -59 -74 -62 -100 -19 -161 79 -111 98 -117 190 -67 57 32 60 32 87 16
29 -18 30 -22 16 -143 -7 -72 -9 -71 103 -114 97 -37 98 -37 163 53 34 46 52
62 73 64 38 5 53 -11 71 -72 9 -28 26 -62 40 -75 l24 -22 86 17 c47 9 93 22
101 28 9 7 20 44 28 100 12 86 14 89 48 109 l36 21 59 -42 c33 -23 68 -42 78
-42 38 0 176 120 176 153 0 6 -14 43 -30 81 l-29 68 22 30 c22 30 22 30 98 24
42 -3 84 -3 93 0 35 13 99 152 97 212 0 27 3 32 22 32 12 0 95 9 184 19 171
20 221 35 277 87 60 56 83 168 55 268 -10 37 -9 40 18 62 82 66 116 59 147
-34 12 -35 28 -67 35 -72 25 -15 183 14 203 37 7 9 22 43 33 76 16 50 25 62
49 70 22 7 36 5 66 -12 60 -33 78 -28 147 42 77 77 84 100 48 162 -40 67 -29
101 45 137 96 47 114 86 91 206 -11 56 -21 65 -78 72 -38 4 -50 10 -63 32 -14
26 -13 31 19 88 22 42 31 69 27 84 -9 35 -112 126 -143 126 -13 0 -50 -18 -80
-40 -31 -22 -62 -40 -69 -40 -24 0 -41 29 -48 79 -10 74 -31 86 -132 71 -89
-12 -121 -29 -129 -68 -16 -77 -26 -99 -51 -112 -22 -12 -29 -12 -52 1 -25 13
-27 21 -32 91 -7 89 -35 141 -101 185 -61 40 -155 44 -224 9z m165 -85 c43
-22 80 -84 80 -133 0 -33 -9 -47 -71 -113 -102 -107 -149 -115 -220 -38 -64
68 -52 180 28 255 53 50 123 62 183 29z m482 -158 c11 -40 20 -51 51 -67 70
-34 106 -32 162 8 l50 36 29 -30 30 -29 -32 -51 c-38 -61 -38 -63 -11 -126 30
-69 46 -84 89 -84 47 0 62 -18 58 -67 -3 -37 -5 -39 -63 -58 -57 -19 -60 -23
-78 -70 -10 -28 -23 -54 -28 -59 -16 -17 -10 -46 18 -96 l27 -48 -28 -36 c-15
-20 -33 -36 -40 -36 -7 0 -31 12 -52 26 l-38 26 -72 -35 -72 -36 -13 -56 c-15
-66 -26 -77 -76 -73 -36 3 -38 5 -46 48 -12 59 -19 66 -82 85 -74 21 -92 19
-135 -15 -45 -36 -47 -36 -77 -8 l-23 21 31 55 32 54 -19 55 c-26 76 -35 86
-91 98 -48 10 -48 10 -51 55 -4 48 13 70 52 70 43 0 69 24 88 80 32 91 32 96
3 146 l-27 46 35 35 35 35 41 -22 c37 -21 44 -22 78 -11 92 31 106 42 121 101
18 70 26 80 73 80 37 0 38 -1 51 -47z m-787 -150 c11 -21 40 -51 63 -68 41
-28 50 -30 134 -30 80 0 92 -3 104 -21 12 -17 11 -25 -4 -54 -13 -28 -28 -39
-70 -54 -30 -10 -60 -29 -69 -42 -19 -29 -23 -175 -5 -196 6 -8 37 -20 68 -27
47 -11 58 -17 69 -43 12 -29 10 -36 -22 -90 -21 -35 -32 -66 -28 -77 6 -19
-32 -24 -365 -47 -155 -11 -179 24 -89 133 61 74 60 79 -10 177 l-50 69 15 36
c16 39 225 371 234 371 3 0 14 -17 25 -37z m-955 -278 l25 -70 83 -9 c45 -4
89 -6 96 -3 8 3 31 31 52 62 20 31 43 59 51 62 14 5 93 -25 93 -35 0 -3 -9
-39 -21 -79 -23 -84 -23 -86 48 -134 24 -17 43 -36 43 -44 0 -14 -35 -74 -114
-198 l-38 -59 -45 47 c-58 61 -118 87 -215 93 -140 8 -235 -27 -337 -127 -116
-113 -166 -256 -142 -405 7 -39 21 -89 31 -112 28 -56 104 -130 170 -162 49
-24 66 -27 160 -27 98 0 110 2 174 33 51 24 87 51 138 104 l69 72 167 10 c172
10 203 7 237 -18 19 -14 19 -14 -1 -63 l-20 -48 -85 3 -84 4 -50 -63 c-28 -35
-54 -69 -58 -76 -4 -7 7 -41 27 -81 l35 -69 -33 -32 c-17 -17 -39 -31 -48 -31
-8 0 -38 18 -66 40 -27 22 -55 40 -61 40 -17 0 -146 -66 -158 -82 -6 -7 -14
-45 -18 -84 -8 -86 -12 -93 -58 -104 -43 -9 -46 -7 -76 77 -13 34 -31 65 -40
67 -21 7 -169 11 -174 5 -2 -2 -23 -30 -46 -61 -45 -63 -71 -73 -110 -40 -20
17 -20 19 -6 87 8 38 13 77 10 85 -6 19 -127 100 -149 100 -9 0 -38 -14 -66
-31 -27 -17 -57 -29 -67 -27 -10 2 -28 18 -40 37 l-23 34 48 61 c27 33 52 66
55 73 6 10 -41 144 -56 159 -3 3 -38 10 -78 15 -40 5 -76 15 -81 21 -12 20 -9
85 5 95 6 5 40 20 74 32 34 13 66 28 71 35 10 11 32 127 32 164 0 14 -18 35
-55 62 -30 22 -55 48 -55 58 0 9 9 32 21 51 l20 33 60 -6 c33 -4 67 -10 75
-13 8 -3 25 8 41 27 16 18 43 50 61 70 37 43 40 70 12 135 -11 26 -20 55 -20
65 0 17 56 70 75 70 4 0 32 -20 61 -46 l53 -45 73 32 c99 42 105 49 113 122 9
86 12 94 43 106 53 19 65 11 92 -64z m656 -207 c50 -58 51 -52 -16 -123 l-63
-65 13 -45 c7 -25 11 -48 8 -50 -2 -3 -43 -8 -91 -11 l-87 -7 86 144 c86 143
111 179 124 179 3 0 15 -10 26 -22z m-510 -271 c43 -22 87 -57 71 -57 -45 0
-225 -24 -266 -36 -77 -22 -156 -98 -177 -172 -35 -119 26 -227 147 -262 31
-10 131 -7 239 6 l45 6 -30 -32 c-73 -77 -220 -116 -319 -85 -212 67 -267 344
-106 528 113 128 268 169 396 104z m1084 -72 c40 -21 64 -69 64 -132 0 -80
-52 -139 -134 -150 -59 -8 -103 17 -131 73 -61 128 78 272 201 209z m-260 2
c0 -1 -9 -28 -20 -60 -26 -73 -25 -136 1 -198 12 -27 20 -51 18 -53 -2 -2 -61
-7 -131 -11 l-128 -7 0 34 c0 32 4 36 68 67 102 51 102 51 102 148 l0 83 45 0
c25 0 45 -1 45 -3z m-172 -72 l3 -51 -81 -33 c-44 -18 -80 -36 -81 -39 -20
-128 -23 -136 -54 -143 -16 -4 -74 -9 -128 -12 l-98 -5 8 31 c10 41 10 203 0
243 l-8 31 168 15 c92 9 191 15 218 14 l50 -1 3 -50z m-558 -5 c0 -6 -12 -29
-26 -52 l-27 -42 -22 45 -23 44 21 7 c35 10 77 9 77 -2z m-200 -45 c57 -29 75
-104 43 -172 -53 -111 -217 -92 -230 27 -11 109 96 192 187 145z m257 -110
c-9 -99 -37 -134 -104 -135 -28 0 -29 19 -5 51 10 13 35 52 56 87 21 34 42 62
48 62 7 0 9 -22 5 -65z"/>
<path d="M13773 8820 c-42 -25 -56 -54 -49 -96 20 -102 176 -70 176 36 0 26
-52 80 -77 80 -10 0 -32 -9 -50 -20z m57 -69 c0 -11 -5 -23 -11 -27 -15 -9
-33 12 -26 30 9 23 37 20 37 -3z"/>
<path d="M14264 8499 c-43 -12 -121 -83 -146 -132 -11 -22 -22 -66 -25 -96 -5
-69 22 -129 80 -175 32 -26 49 -31 105 -34 58 -3 74 0 122 25 131 67 179 233
99 343 -50 68 -143 96 -235 69z m145 -105 c79 -66 43 -198 -64 -240 -122 -46
-210 73 -140 191 44 76 144 100 204 49z"/>
<path d="M13757 7699 c-21 -12 -47 -61 -47 -87 0 -33 38 -72 71 -72 41 0 66
15 84 50 21 41 19 67 -10 95 -25 26 -67 32 -98 14z m60 -65 c7 -18 -17 -38
-31 -24 -11 11 -1 40 14 40 6 0 13 -7 17 -16z"/>
<path d="M10000 8120 l0 -40 168 0 167 -1 -115 -40 c-63 -22 -137 -48 -165
-58 l-50 -18 -3 -51 -3 -52 261 0 261 0 -3 38 -3 37 -175 5 c-96 3 -168 7
-160 8 8 2 87 29 175 61 l160 59 0 43 0 44 -257 3 -258 2 0 -40z"/>
<path d="M10096 7766 c-65 -24 -99 -66 -103 -128 -5 -69 20 -111 85 -141 41
-19 64 -22 182 -22 118 0 141 3 182 22 116 53 118 200 3 258 -33 17 -63 20
-175 22 -98 2 -146 -1 -174 -11z m295 -86 c46 -13 63 -33 55 -64 -9 -38 -57
-51 -186 -51 -129 0 -177 13 -186 51 -8 30 9 51 50 63 43 13 223 13 267 1z"/>
<path d="M10000 7355 l0 -45 261 0 260 0 -3 43 -3 42 -257 3 -258 2 0 -45z"/>
<path d="M10000 7105 l0 -145 39 0 40 0 3 48 3 47 215 0 215 0 3 43 3 42 -220
0 -221 0 0 55 0 55 -40 0 -40 0 0 -145z"/>
<path d="M10489 6946 c-4 -4 -387 -89 -452 -101 l-38 -6 3 -61 3 -61 245 -54
c135 -29 251 -53 258 -53 9 0 12 13 10 42 l-3 43 -63 13 -63 14 3 51 3 52 63
14 62 15 0 48 c0 33 -4 48 -13 48 -8 0 -16 -2 -18 -4z m-179 -175 l0 -38 -102
21 -103 20 85 17 c124 25 120 25 120 -20z"/>
<path d="M10000 6460 l0 -150 40 0 40 0 0 50 0 50 218 2 217 3 3 43 3 42 -220
0 -221 0 0 55 0 55 -40 0 -40 0 0 -150z"/>
<path d="M10007 6253 c-4 -3 -7 -21 -7 -39 l0 -34 160 -2 161 -3 -158 -55
-158 -55 -3 -52 -3 -53 260 0 261 0 0 40 0 40 -182 1 -183 0 155 55 c85 31
166 59 180 63 21 6 25 14 28 54 l3 47 -254 0 c-139 0 -257 -3 -260 -7z"/>
<path d="M10000 5765 l0 -125 260 0 261 0 -3 123 -3 122 -37 3 -38 3 0 -85 0
-86 -75 0 -74 0 -3 78 -3 77 -37 3 -38 3 0 -80 0 -81 -65 0 -65 0 0 85 0 85
-40 0 -40 0 0 -125z"/>
<path d="M10002 5478 l3 -62 150 -31 c169 -36 193 -43 150 -45 -16 -1 -91 -14
-165 -28 l-135 -27 -3 -63 -3 -62 251 0 c137 0 253 -1 258 -2 4 -2 8 17 10 41
l3 44 -198 -5 c-219 -6 -216 -2 30 38 l168 27 -3 41 -3 41 -200 35 -200 35
203 3 202 2 0 40 0 40 -260 0 -261 0 3 -62z"/>
<path d="M10000 5026 l0 -46 205 0 c192 0 206 -1 225 -20 11 -11 20 -29 20
-40 0 -11 -9 -29 -20 -40 -19 -19 -33 -20 -225 -20 l-205 0 0 -45 0 -45 208 0
c177 0 212 3 241 18 98 49 107 190 18 256 -26 19 -44 21 -248 24 l-219 3 0
-45z"/>
<path d="M10085 4699 c-17 -4 -44 -22 -60 -39 -26 -27 -30 -39 -30 -85 0 -67
23 -101 91 -135 45 -23 60 -25 179 -25 112 0 137 3 177 22 137 63 110 239 -41
269 l-31 7 0 -46 c0 -42 2 -46 30 -52 56 -12 64 -71 12 -95 -71 -33 -287 -20
-326 20 -27 26 -9 65 33 75 29 6 31 10 31 51 0 48 -5 51 -65 33z"/>
<path d="M10166 4349 c-117 -17 -171 -65 -171 -149 0 -88 57 -134 191 -153 88
-13 219 2 268 31 91 53 101 172 19 230 -54 38 -199 58 -307 41z m233 -100 c62
-22 59 -78 -6 -100 -41 -15 -210 -19 -256 -6 -68 19 -81 77 -23 103 38 16 239
19 285 3z"/>
<path d="M10171 3979 c-129 -22 -171 -75 -171 -211 l0 -88 260 0 260 0 0 86
c0 90 -7 112 -48 157 -45 48 -192 75 -301 56z m209 -103 c38 -14 76 -66 66
-91 -4 -13 -35 -15 -186 -15 l-180 0 0 33 c0 42 8 53 50 71 43 19 200 20 250
2z"/>
<path d="M8414 2955 c-25 -17 -54 -74 -54 -105 0 -35 71 -100 109 -100 72 0
96 128 36 190 -32 33 -60 38 -91 15z"/>
<path d="M12110 2943 c-64 -65 -63 -105 3 -173 43 -44 75 -38 105 20 28 53 25
117 -5 159 -30 40 -58 38 -103 -6z"/>
<path d="M11784 1225 c-13 -19 -15 -33 -8 -57 14 -46 37 -57 71 -32 36 27 39
53 13 87 -27 34 -55 34 -76 2z"/>
<path d="M8757 1222 c-23 -25 -21 -57 5 -82 28 -25 33 -25 52 2 20 29 20 62 0
82 -20 21 -37 20 -57 -2z"/>
</g>
</svg>
