<?xml version="1.0" standalone="no"?>
<!DOCTYPE svg PUBLIC "-//W3C//DTD SVG 20010904//EN"
 "http://www.w3.org/TR/2001/REC-SVG-20010904/DTD/svg10.dtd">
<svg version="1.0" xmlns="http://www.w3.org/2000/svg"
 width="1024.000000pt" height="1024.000000pt" viewBox="0 0 1024.000000 1024.000000"
 preserveAspectRatio="xMidYMid meet">

<g transform="translate(0.000000,1024.000000) scale(0.100000,-0.100000)"
fill="#000000" stroke="none">
<path d="M5165 9949 c-176 -23 -360 -84 -486 -161 -50 -31 -119 -87 -171 -138
-78 -79 -92 -99 -147 -212 -33 -68 -72 -134 -85 -147 -30 -28 -87 -45 -256
-77 -254 -47 -394 -90 -565 -174 -241 -119 -463 -345 -550 -559 -14 -34 -43
-132 -65 -217 -54 -212 -50 -205 -139 -227 -155 -38 -241 -139 -306 -362 -55
-192 -70 -569 -30 -755 22 -99 83 -227 135 -284 55 -59 147 -106 210 -106 55
0 65 -9 80 -73 23 -105 75 -247 123 -342 120 -231 361 -388 752 -490 164 -43
273 -62 400 -71 55 -3 108 -11 118 -16 14 -7 17 -23 17 -96 0 -48 -4 -92 -8
-98 -4 -6 -62 -27 -130 -47 -412 -124 -689 -365 -806 -704 -19 -54 -36 -80
-83 -129 -131 -133 -181 -314 -127 -465 l14 -43 -74 -160 c-74 -162 -146 -343
-146 -369 0 -7 -2 -16 -6 -19 -3 -3 -67 14 -142 38 -176 57 -292 90 -364 104
-55 11 -57 12 -74 58 -38 100 -177 201 -289 210 l-63 5 -35 121 c-43 144 -51
187 -42 216 6 20 7 21 21 3 7 -10 14 -29 14 -42 0 -45 96 -148 147 -157 50 -9
121 22 151 66 20 30 23 43 18 90 -4 30 -6 76 -6 102 0 36 -4 50 -20 61 -17 12
-20 21 -14 53 5 32 2 43 -15 58 -15 13 -19 26 -14 47 4 22 -1 33 -21 52 -33
31 -33 60 -1 81 20 13 25 25 25 61 0 46 -31 142 -60 185 -14 21 -15 29 -3 50
7 14 13 55 13 92 0 126 -60 230 -150 260 l-42 14 -42 134 c-23 74 -56 162 -73
195 -44 85 -113 159 -181 192 -106 52 -265 33 -437 -51 -139 -69 -227 -152
-287 -270 -17 -33 -42 -77 -56 -98 l-25 -38 27 -70 c16 -39 36 -75 46 -80 27
-14 66 -12 79 4 6 7 22 11 34 9 14 -3 31 2 40 11 8 9 27 16 41 16 14 0 26 4
26 9 0 5 15 11 33 14 76 13 94 18 162 48 17 7 34 12 39 10 4 -1 18 5 30 13 12
8 39 16 60 18 l38 3 19 -60 c25 -79 25 -80 -16 -55 -32 20 -39 21 -68 9 -18
-7 -39 -18 -48 -26 -8 -7 -24 -13 -35 -13 -10 0 -41 -12 -69 -25 -27 -14 -53
-25 -57 -25 -14 0 -163 -72 -169 -82 -3 -5 -10 -8 -15 -7 -55 10 -70 -23 -45
-98 10 -32 26 -84 35 -116 14 -47 31 -72 92 -140 41 -45 88 -105 105 -134 40
-70 239 -675 239 -728 0 -6 -16 -17 -35 -24 -48 -17 -65 -54 -65 -138 0 -77
25 -144 60 -163 18 -10 21 -18 16 -44 -9 -46 18 -127 54 -161 20 -19 30 -39
30 -57 0 -58 46 -112 114 -135 22 -7 33 -19 42 -49 7 -21 29 -93 49 -159 92
-303 198 -427 353 -412 216 19 258 203 133 571 -17 49 -29 91 -26 94 2 2 19
-5 37 -16 62 -38 407 -161 538 -192 30 -7 68 -24 84 -37 59 -49 107 -67 181
-67 56 0 80 6 121 26 86 45 143 126 159 227 4 25 35 101 69 170 34 69 70 146
80 171 l18 45 9 -35 c4 -19 20 -96 34 -170 15 -74 33 -145 41 -157 29 -45 75
-62 216 -79 l48 -5 16 -57 c9 -31 32 -97 52 -146 52 -131 42 -127 382 -151
118 -8 241 -18 272 -21 62 -7 55 0 96 -103 3 -7 -14 0 -37 17 -57 42 -132 56
-256 49 -173 -10 -261 -52 -312 -149 -24 -46 -28 -65 -28 -138 0 -74 4 -93 28
-139 l27 -53 -75 -239 c-71 -227 -77 -241 -118 -281 -66 -66 -84 -158 -52
-265 15 -50 69 -113 98 -113 18 0 160 -562 144 -572 -7 -4 -67 -31 -135 -60
-187 -80 -232 -128 -232 -248 0 -52 4 -65 26 -87 l26 -26 252 6 c301 8 564 30
607 52 47 25 54 56 33 150 -9 44 -16 107 -15 140 3 72 -10 109 -50 151 -29 29
-33 44 -64 230 -18 110 -41 229 -50 265 -15 61 -15 70 -1 119 20 67 20 122 1
187 l-15 51 75 211 c41 116 75 218 75 227 0 9 15 31 33 48 18 17 43 46 55 63
21 30 29 33 72 33 47 0 49 -1 60 -36 7 -20 25 -51 42 -69 45 -52 88 -57 420
-53 330 4 321 1 371 101 26 54 29 57 65 57 31 0 41 -5 55 -29 9 -16 32 -42 50
-57 26 -22 39 -49 68 -138 20 -61 57 -168 82 -237 43 -121 44 -126 30 -160
-20 -46 -20 -164 0 -211 11 -27 13 -46 7 -69 -16 -56 -50 -232 -69 -364 -18
-123 -21 -132 -54 -167 -39 -42 -61 -113 -52 -168 4 -22 0 -62 -9 -98 -18 -69
-20 -125 -6 -152 6 -11 33 -26 63 -34 67 -19 460 -46 672 -46 196 0 205 4 213
91 3 42 -1 67 -18 106 -34 79 -46 87 -252 178 -60 26 -108 50 -108 54 0 6 111
449 130 521 7 27 19 41 45 53 53 25 85 99 85 195 0 88 -15 126 -66 172 -37 34
-43 47 -113 277 l-73 241 25 54 c35 72 41 139 22 213 -40 150 -151 215 -370
215 -114 -1 -169 -13 -222 -51 l-43 -30 21 48 c11 26 23 51 27 55 4 3 108 11
232 17 248 12 411 33 447 56 31 21 65 91 99 205 15 52 30 99 34 103 4 4 53 14
109 21 107 14 143 32 155 79 6 26 51 344 61 432 l7 60 75 -215 c41 -118 78
-240 83 -270 4 -30 15 -74 25 -97 14 -35 15 -52 6 -115 -11 -78 -22 -194 -46
-483 l-15 -180 -103 -100 c-104 -101 -153 -175 -172 -262 -16 -76 48 -153 128
-153 40 0 55 11 111 85 25 33 30 35 38 20 11 -18 2 -139 -12 -166 -5 -8 -27
-37 -49 -64 -31 -38 -41 -58 -41 -86 0 -94 158 -157 254 -101 20 12 50 22 65
22 38 0 106 25 139 51 80 63 126 177 138 349 12 154 8 228 -13 294 -18 57 -18
62 -1 95 21 44 33 165 49 491 8 178 15 249 25 260 49 56 62 192 26 272 -11 25
-36 61 -55 80 -31 31 -42 58 -82 187 -52 172 -136 416 -156 452 -9 16 -13 68
-13 164 -1 128 -3 144 -25 185 -34 64 -121 150 -191 190 -58 33 -63 39 -100
118 -97 206 -271 374 -508 492 -89 44 -246 96 -321 106 -81 11 -85 17 -76 158
4 73 12 124 19 128 6 4 27 8 47 8 105 0 340 60 500 127 185 78 336 186 410
293 39 56 110 217 173 395 49 135 51 137 183 145 121 7 175 26 236 80 79 69
108 148 171 465 63 310 79 431 80 580 1 123 -1 133 -27 187 -33 67 -109 139
-163 156 -22 6 -84 16 -139 23 -55 6 -106 16 -112 21 -10 8 -13 58 -13 188 0
222 -14 305 -72 419 -106 210 -374 409 -752 557 -56 22 -104 47 -112 59 -7 11
-22 59 -33 106 -35 150 -56 194 -132 274 -73 76 -176 153 -268 200 -265 133
-648 200 -936 164z m480 -204 c360 -81 622 -263 666 -461 9 -40 9 -58 1 -66
-7 -7 -74 -2 -239 21 -345 47 -483 54 -942 47 -223 -4 -457 -9 -520 -12 -71
-4 -117 -2 -123 4 -7 7 2 36 28 89 53 107 176 231 289 290 93 48 209 86 315
103 41 6 82 13 90 15 8 2 83 3 165 1 119 -3 175 -9 270 -31z m130 -634 c460
-55 737 -119 987 -231 285 -126 448 -299 508 -534 68 -269 30 -1043 -76 -1566
-31 -149 -102 -399 -144 -504 -40 -101 -105 -231 -143 -283 -97 -137 -434
-270 -792 -313 -151 -19 -563 -24 -865 -11 -157 6 -420 16 -585 22 -488 17
-711 41 -952 104 -257 67 -400 141 -534 274 -71 72 -93 102 -132 181 -133 272
-173 531 -164 1054 12 705 112 1060 381 1344 260 275 634 411 1281 466 99 9
200 18 225 20 25 2 221 2 435 1 322 -2 421 -7 570 -24z m-3030 -1421 c-11
-134 -13 -269 -8 -582 7 -460 14 -426 -76 -382 -115 58 -161 191 -161 465 0
213 29 390 82 499 35 72 151 201 167 185 6 -6 5 -74 -4 -185z m4924 74 c22 -8
43 -26 50 -40 16 -36 14 -292 -4 -404 -14 -84 -97 -520 -110 -577 -3 -13 -21
-31 -44 -42 -45 -24 -154 -43 -189 -34 -22 5 -24 10 -19 47 3 22 34 250 70
506 36 256 68 489 72 519 l7 54 65 -7 c35 -4 81 -14 102 -22z m-6163 -2079
c63 -18 122 -68 156 -131 24 -44 118 -293 118 -311 0 -6 -128 -32 -224 -45
-15 -3 -24 14 -50 92 -22 66 -38 98 -52 104 -11 5 -31 32 -45 60 -19 40 -30
52 -51 54 -15 2 -115 -27 -223 -63 -108 -36 -203 -65 -211 -63 -11 2 -5 16 20
54 75 112 214 206 358 244 89 23 139 24 204 5z m3233 -165 c128 -5 440 -13
693 -17 306 -4 463 -10 471 -17 9 -8 12 -42 9 -123 l-4 -113 -86 0 c-48 0
-233 9 -412 20 -179 10 -435 24 -570 30 -376 16 -428 20 -440 35 -6 7 -14 52
-17 100 -7 102 -3 108 72 100 28 -3 155 -10 284 -15z m-3370 -91 c16 -45 15
-46 -29 -53 -22 -3 -40 -11 -40 -17 0 -6 -9 -8 -20 -4 -11 3 -34 -1 -52 -11
-60 -31 -68 -34 -86 -34 -10 0 -27 -7 -38 -15 -10 -8 -29 -15 -42 -15 -12 0
-30 -4 -40 -9 -41 -21 -78 -34 -90 -32 -8 1 -20 -3 -28 -10 -20 -16 -35 0 -37
40 l-2 31 230 79 c127 43 237 79 247 80 10 0 20 -11 27 -30z m3416 -285 c99
-8 257 -21 350 -29 203 -18 553 -35 720 -35 322 0 597 -109 816 -321 58 -57
140 -164 155 -203 7 -18 -62 -30 -360 -61 -555 -58 -1063 -60 -2141 -10 -436
20 -674 34 -775 45 -47 6 -93 10 -103 10 -15 0 -12 11 22 78 139 266 360 436
671 517 141 37 281 39 645 9z m-2890 -16 c58 -26 99 -155 71 -222 -17 -41 -42
-55 -216 -121 -172 -66 -174 -67 -167 -129 5 -54 42 -172 59 -193 14 -18 84
-16 148 3 44 13 54 13 61 2 17 -26 8 -53 -48 -152 -57 -100 -58 -102 -58 -181
0 -65 8 -106 43 -222 43 -140 43 -143 25 -167 -10 -14 -21 -26 -25 -26 -9 0
-82 225 -177 546 -72 243 -102 336 -130 399 -5 11 -12 33 -16 49 -8 36 -75
106 -103 106 -50 0 -94 -87 -72 -145 15 -39 36 -31 49 20 14 57 38 59 75 8 28
-40 33 -55 146 -443 39 -135 96 -323 126 -418 62 -192 62 -173 -4 -251 l-29
-34 -22 84 c-40 151 -67 240 -155 512 -48 147 -99 314 -114 370 -21 78 -32
103 -46 105 -16 3 -17 -1 -11 -40 9 -49 72 -267 168 -575 59 -189 121 -406
202 -707 46 -171 116 -388 145 -451 15 -33 35 -83 45 -112 31 -96 115 -134
172 -77 24 24 25 30 21 107 -4 78 -35 193 -145 555 -22 70 -24 85 -12 93 22
14 23 13 43 -58 11 -38 48 -158 82 -267 77 -241 98 -341 91 -419 -6 -62 -22
-89 -69 -113 -55 -29 -118 -13 -169 43 -72 76 -120 216 -289 833 -186 682
-282 989 -351 1121 -26 51 -70 110 -125 169 -76 83 -103 130 -73 130 6 0 101
39 211 87 198 86 225 103 211 140 -5 14 3 16 142 36 126 18 256 20 290 5z
m-495 -43 c0 -6 -53 -33 -117 -59 -65 -27 -151 -64 -191 -82 -41 -19 -78 -34
-83 -34 -9 0 -24 48 -17 55 3 3 20 7 38 9 19 2 36 9 38 15 2 6 9 11 15 11 6 0
31 9 56 21 88 40 153 64 166 61 6 -1 24 9 40 23 27 22 31 22 43 8 6 -9 12 -22
12 -28z m556 -342 c-4 -16 -26 -131 -26 -140 0 -2 -7 -3 -16 -3 -13 0 -15 10
-9 68 5 43 13 71 23 80 22 17 34 15 28 -5z m57 -56 l16 -48 -26 -10 c-14 -5
-27 -8 -29 -6 -2 2 1 29 7 61 7 31 13 55 14 54 1 -2 9 -25 18 -51z m-152 -33
c-9 -61 -21 -83 -44 -84 -5 0 -6 12 -3 28 3 15 8 46 11 69 6 36 31 70 43 58 2
-2 -1 -34 -7 -71z m-75 30 c-3 -9 -9 -41 -13 -72 -5 -52 -15 -71 -36 -72 -14
0 5 134 21 148 22 17 35 15 28 -4z m-84 -54 c-5 -48 -17 -52 -26 -8 -4 21 -2
34 6 40 22 13 24 10 20 -32z m305 -117 c-3 -18 2 -33 18 -48 16 -17 21 -31 17
-56 -3 -24 0 -36 14 -46 13 -10 17 -24 16 -51 -2 -28 2 -43 17 -56 15 -14 18
-23 11 -37 -14 -26 -12 -55 5 -69 24 -20 18 -68 -11 -95 -47 -44 -121 -30
-139 25 -3 11 -12 20 -20 20 -15 0 -26 25 -19 43 3 8 -2 20 -11 27 -8 7 -15
22 -15 34 0 12 -5 27 -11 33 -8 8 -7 17 1 34 12 21 14 17 41 -56 36 -99 61
-127 109 -123 l35 3 3 55 c2 43 -8 91 -46 217 -27 89 -47 165 -44 168 3 3 12
5 20 5 10 0 13 -8 9 -27z m-9 -198 c39 -134 45 -174 26 -182 -22 -8 -39 21
-72 117 -25 75 -27 88 -16 115 7 17 13 41 14 55 1 38 14 10 48 -105z m1682 60
c113 -7 322 -19 465 -25 143 -6 395 -18 560 -26 165 -8 441 -18 613 -21 l312
-6 0 -266 c1 -451 0 -560 -6 -734 l-7 -167 -536 2 -536 3 -6 65 c-4 36 -12
137 -19 225 -14 186 -23 231 -51 246 -30 16 -302 29 -655 31 l-310 2 -47 341
c-26 187 -48 344 -47 349 0 5 15 6 33 2 17 -4 124 -13 237 -21z m3195 -7 c-2
-13 -16 -124 -30 -248 -29 -257 -113 -894 -121 -927 -7 -24 -18 -28 -144 -44
-107 -13 -849 -24 -860 -13 -5 5 -4 149 2 319 9 237 8 372 -1 573 -7 145 -10
266 -7 269 3 3 104 10 223 14 269 10 847 60 862 75 2 2 22 4 43 4 35 0 38 -2
33 -22z m212 -15 c55 -42 66 -54 93 -105 51 -95 7 -255 -87 -318 -48 -31 -119
-58 -129 -48 -5 6 40 422 52 481 3 15 9 27 14 27 5 0 30 -17 57 -37z m-3782
-234 c19 -140 35 -258 35 -262 0 -18 -93 58 -125 101 -69 94 -82 203 -38 304
19 42 82 123 89 115 3 -2 20 -118 39 -258z m3988 -374 c42 -128 107 -342 107
-351 0 -2 -10 -4 -22 -4 -13 0 -43 -9 -67 -20 -24 -11 -46 -18 -48 -16 -4 4
-134 360 -147 403 -6 17 1 27 36 51 24 17 54 42 67 56 14 14 25 25 27 23 1 -1
23 -65 47 -142z m-4093 53 c33 -23 60 -46 60 -51 0 -5 -38 -92 -85 -193 -47
-102 -85 -190 -85 -196 0 -6 -9 -8 -22 -3 -13 4 -44 12 -70 18 -27 6 -48 14
-48 19 0 23 177 448 187 448 2 0 31 -19 63 -42z m3898 -161 c18 -61 53 -161
78 -222 24 -60 44 -113 44 -117 0 -4 -12 -7 -26 -6 -19 2 -31 13 -47 43 -21
41 -147 380 -147 395 0 9 22 17 50 19 11 1 24 -31 48 -112z m-5121 25 c12 -33
14 -47 5 -50 -6 -2 -49 -35 -94 -73 -45 -38 -87 -69 -94 -69 -12 0 -44 42 -44
59 0 5 41 52 91 105 101 107 105 108 136 28z m1387 36 c7 -12 -3 -46 -39 -129
-79 -186 -133 -299 -143 -299 -5 0 -19 11 -31 24 l-22 23 66 144 c37 79 78
172 92 206 22 55 27 61 46 54 11 -4 25 -15 31 -23z m-1926 -52 c27 -92 27 -96
0 -96 -41 0 -51 15 -56 79 -4 57 6 91 28 91 4 0 17 -33 28 -74z m647 33 c69
-49 96 -97 103 -175 l5 -67 -33 7 c-44 8 -73 28 -105 70 -21 28 -24 38 -16 55
14 25 14 81 1 115 -12 33 -8 33 45 -5z m1925 -54 c381 -8 419 -11 425 -38 4
-19 35 -397 35 -434 0 -24 -712 -13 -832 13 -19 4 -30 15 -37 37 -11 36 -81
400 -81 424 0 14 14 15 108 10 59 -4 231 -9 382 -12z m-2520 -168 c0 -1 9 -32
19 -70 19 -64 19 -67 2 -67 -38 0 -72 81 -51 121 9 15 30 27 30 16z m602 -62
c21 -8 49 -15 63 -15 23 0 25 -3 20 -22 -21 -69 -89 -149 -99 -116 -3 7 -14
45 -26 83 -12 39 -26 83 -31 99 l-9 30 23 -22 c12 -11 39 -28 59 -37z m318 22
c58 -18 160 -53 227 -76 l121 -43 -29 -46 c-16 -25 -29 -52 -29 -58 0 -7 -4
-15 -9 -18 -4 -3 -98 28 -207 69 l-199 74 2 31 c1 33 12 100 16 100 1 0 49
-15 107 -33z m-637 -42 c12 -3 35 -4 51 -3 33 3 26 21 126 -322 24 -80 45
-150 47 -156 3 -9 -6 -9 -36 -1 -36 10 -44 9 -71 -11 l-30 -23 -10 27 c-25 64
-160 522 -160 540 0 3 14 -6 31 -20 17 -14 40 -28 52 -31z m742 -202 c83 -31
156 -60 163 -66 14 -11 17 -67 3 -67 -18 0 -445 150 -454 159 -6 6 -1 21 12
40 l22 31 52 -21 c29 -11 120 -45 202 -76z m4965 68 c39 -28 51 -60 47 -123
-4 -65 -28 -100 -85 -125 -29 -12 -37 -12 -76 5 -50 23 -76 68 -76 134 0 109
107 170 190 109z m-4427 -19 c85 -80 71 -214 -28 -262 -161 -78 -296 111 -181
254 17 23 35 31 72 37 69 10 104 3 137 -29z m-1489 -24 c3 -16 3 -28 -2 -28
-13 0 -33 50 -26 62 8 13 20 -1 28 -34z m5660 -181 c6 -13 5 -16 -7 -11 -21 8
-47 76 -46 122 0 35 1 34 23 -28 12 -36 26 -73 30 -83z m-2001 -23 c1147 -7
1207 -8 1207 -25 0 -22 -17 -25 -200 -39 -404 -29 -1463 -41 -1825 -20 -88 5
-237 12 -332 16 -167 7 -172 8 -177 30 -3 12 -9 30 -13 39 -5 16 0 17 63 11
38 -3 612 -9 1277 -12z m2033 -108 c19 -13 20 -21 13 -73 -4 -32 -12 -134 -18
-228 -22 -336 -21 -334 -65 -302 -17 12 -17 24 3 262 34 397 28 368 67 341z
m-3014 -28 c249 -19 363 -21 953 -21 532 -1 719 3 906 16 319 23 300 24 288
-12 -8 -22 -18 -30 -42 -35 -155 -28 -745 -60 -1117 -60 -265 -1 -618 12 -925
34 -71 5 -179 12 -238 15 l-108 7 -20 39 c-24 47 -62 45 303 17z m3234 -50
c-4 -35 -11 -130 -16 -213 -13 -191 -29 -318 -40 -329 -5 -5 -37 -9 -72 -10
-57 -1 -63 1 -61 19 1 11 9 128 18 260 8 132 18 260 21 284 6 42 7 43 39 38
17 -3 47 -2 66 3 19 4 38 8 42 9 5 1 6 -27 3 -61z m-5501 8 c24 -36 30 -89 12
-104 -31 -26 -67 18 -67 82 0 52 28 64 55 22z m2797 -205 c4 -5 129 -390 155
-482 4 -13 -2 -15 -27 -11 -17 2 -36 12 -41 21 -11 18 -198 447 -206 473 -4
15 2 16 53 11 33 -3 62 -8 66 -12z m695 -5 c1 -1 -18 -60 -41 -131 -23 -72
-55 -177 -70 -235 -16 -58 -30 -111 -32 -118 -3 -10 -41 -12 -165 -10 l-161 3
-84 245 c-46 135 -84 247 -84 250 0 5 632 1 637 -4z m183 9 c0 -8 -168 -442
-180 -466 -7 -13 -18 -27 -24 -31 -18 -13 -56 -9 -56 5 0 8 31 119 69 248 l68
234 44 6 c64 9 79 10 79 4z m-1290 -123 c0 -4 -7 -17 -15 -29 -20 -29 -47
-136 -43 -173 l3 -30 -100 -4 c-55 -2 -112 -10 -128 -17 -15 -7 -30 -9 -35 -5
-4 4 -7 35 -7 69 0 107 44 155 167 182 70 15 158 19 158 7z m1742 -6 c36 -8
81 -22 98 -31 45 -23 72 -88 68 -163 -3 -64 6 -60 -98 -41 -30 6 -80 9 -112 7
l-56 -4 -4 71 c-2 53 -10 85 -30 123 l-27 52 47 0 c26 0 77 -7 114 -14z
m-1627 -20 c18 -13 18 -14 -4 -26 -13 -6 -32 -32 -43 -57 -34 -77 -7 -178 54
-205 20 -9 24 -16 16 -25 -13 -16 -52 -17 -80 -2 -51 27 -76 176 -43 256 29
69 61 88 100 59z m1445 -36 c19 -35 25 -60 25 -110 0 -36 -3 -77 -7 -92 -13
-43 -56 -88 -86 -88 -26 0 -61 15 -52 22 3 2 18 12 33 22 73 45 77 187 8 250
-26 24 -11 49 28 44 19 -2 33 -15 51 -48z m-1261 -111 c13 -28 21 -52 19 -54
-7 -7 -144 -9 -155 -2 -13 8 -18 89 -6 100 3 4 32 7 63 7 l58 0 21 -51z m1132
30 c6 -12 8 -36 4 -55 l-6 -34 -74 0 c-41 0 -75 3 -75 7 0 4 7 26 16 50 17 44
14 42 106 51 10 1 22 -7 29 -19z m-1562 -266 c-15 -43 -56 -165 -89 -270 l-61
-193 -66 0 c-58 0 -64 2 -58 18 3 9 38 123 77 253 38 130 74 242 79 250 7 12
122 30 141 22 3 -2 -7 -38 -23 -80z m1966 54 c7 -12 34 -94 60 -182 26 -88 57
-195 71 -238 13 -43 24 -82 24 -88 0 -5 -28 -9 -62 -9 l-63 0 -84 263 c-46
144 -85 267 -87 272 -3 6 21 9 61 7 54 -3 68 -8 80 -25z m1001 7 c38 -8 102
-14 148 -13 l80 2 15 -34 c19 -45 19 -192 0 -215 -38 -46 -161 -59 -236 -24
-24 10 -43 23 -43 27 -1 36 -33 150 -55 193 -25 50 -25 52 -8 66 23 17 19 17
99 -2z m-2796 -89 c27 -9 28 -2 -52 -222 l-63 -172 -55 3 c-30 2 -54 8 -54 12
2 10 46 157 101 332 l34 113 34 -30 c19 -16 43 -32 55 -36z m1615 -2 c9 -32
36 -121 60 -198 66 -209 66 -190 0 -192 -30 -1 -55 -1 -55 1 0 1 -29 82 -65
180 -36 98 -65 183 -65 191 0 7 13 18 29 25 16 6 37 20 47 31 9 10 21 19 25
19 4 0 15 -26 24 -57z m1005 -50 c13 -46 13 -46 -16 -70 -16 -12 -31 -23 -34
-23 -3 0 -18 -18 -34 -40 -31 -42 -56 -52 -56 -22 0 39 96 202 119 202 5 0 14
-21 21 -47z m254 -308 c-11 -56 -42 -113 -84 -159 -44 -48 -66 -55 -116 -36
l-27 11 36 37 c42 43 63 89 72 158 l7 50 59 -15 c59 -15 59 -16 53 -46z m166
26 c-16 -56 -47 -117 -77 -148 -40 -43 -59 -43 -37 -2 8 17 21 59 28 92 11 56
15 62 47 73 48 17 49 17 39 -15z m-3195 -167 c25 -10 55 -79 55 -126 0 -57
-28 -110 -63 -123 -87 -30 -144 142 -76 229 20 25 50 33 84 20z m1893 -16 c58
-63 37 -216 -33 -234 -50 -13 -105 53 -105 125 0 66 45 131 90 131 15 0 36
-10 48 -22z m-2156 -18 l78 0 -6 -57 c-4 -38 0 -75 9 -105 l15 -48 -97 0
c-104 0 -120 7 -135 57 -12 37 -9 101 4 134 10 24 18 29 34 25 12 -3 56 -6 98
-6z m2476 -36 c17 -49 8 -114 -19 -148 -19 -25 -25 -26 -116 -26 -87 0 -94 2
-87 18 4 9 9 56 12 104 l4 87 86 3 c48 2 92 3 97 3 6 -1 16 -19 23 -41z
m-2129 -514 c17 -107 27 -198 23 -202 -10 -10 -62 -21 -62 -14 0 4 -25 104
-55 222 -30 119 -55 218 -55 220 0 2 15 4 33 5 17 0 41 4 52 8 26 11 26 8 64
-239z m1756 233 l40 -5 -54 -221 c-30 -122 -56 -224 -58 -226 -5 -8 -63 22
-63 33 0 6 9 65 19 131 11 66 25 162 32 213 10 79 14 92 28 86 9 -3 34 -8 56
-11z m-1896 -256 c75 -306 75 -312 -11 -301 -29 4 -56 10 -61 13 -4 4 -13 32
-21 62 -8 29 -38 142 -67 249 -28 107 -54 205 -57 218 -4 23 -3 23 74 20 l79
-3 64 -258z m2149 251 c-6 -14 -59 -212 -111 -413 l-34 -130 -53 -8 c-58 -8
-80 2 -82 39 -1 10 27 133 61 272 l63 252 80 0 c60 0 79 -3 76 -12z m-1903
-538 c12 -13 18 -36 18 -65 0 -75 -57 -111 -103 -65 -32 32 -23 117 14 142 20
14 53 8 71 -12z m1520 0 c9 -10 20 -39 22 -63 4 -36 1 -49 -16 -66 -47 -47
-101 -19 -108 56 -5 42 -2 54 16 72 26 26 62 27 86 1z m-1781 -119 c33 -4 61
-12 63 -17 28 -82 130 -134 206 -105 22 9 25 7 30 -15 2 -14 -1 -27 -7 -29
-27 -10 -465 -35 -598 -35 l-147 0 10 33 c11 40 48 70 119 97 30 12 84 37 120
56 54 28 72 33 105 28 22 -3 67 -9 99 -13z m2228 -45 c134 -64 178 -98 178
-137 0 -18 -10 -19 -147 -19 -82 0 -242 7 -358 15 -115 8 -218 15 -227 15 -13
0 -18 8 -18 31 0 23 4 30 14 26 38 -15 88 -18 119 -8 39 13 85 54 98 88 6 15
20 24 46 28 21 4 56 10 78 15 69 14 79 11 217 -54z"/>
<path d="M3913 8706 c-430 -82 -719 -433 -740 -902 -7 -154 6 -258 48 -387 38
-115 77 -188 145 -270 141 -170 334 -257 579 -260 138 -2 233 16 355 67 215
91 424 293 515 500 71 161 104 354 86 507 -46 383 -256 635 -607 729 -102 27
-281 35 -381 16z m336 -181 c95 -23 216 -90 281 -156 231 -237 265 -666 76
-958 -86 -133 -180 -216 -319 -281 -290 -135 -584 -88 -756 123 -254 310 -233
813 46 1091 89 89 205 152 338 181 83 18 256 18 334 0z"/>
<path d="M3939 8194 c-67 -20 -146 -95 -179 -169 -112 -250 -52 -540 133 -637
58 -31 163 -31 228 1 195 93 293 445 184 661 -65 130 -218 190 -366 144z"/>
<path d="M5985 8630 c-345 -49 -597 -260 -712 -595 -55 -161 -67 -367 -33
-536 65 -320 249 -546 517 -637 72 -25 90 -27 238 -26 139 1 173 5 260 28 195
51 376 162 485 299 51 63 125 204 154 290 51 154 59 401 17 560 -26 100 -85
223 -150 314 -95 134 -252 238 -427 283 -90 23 -259 33 -349 20z m310 -214
c114 -36 198 -89 291 -181 135 -134 189 -271 188 -480 0 -232 -70 -394 -238
-552 -130 -123 -261 -179 -446 -189 -124 -8 -218 12 -336 70 -253 125 -388
415 -340 731 38 257 176 455 391 561 50 25 119 51 155 59 96 21 235 14 335
-19z"/>
<path d="M5930 8047 c-55 -17 -151 -121 -179 -192 -74 -193 -5 -462 137 -534
135 -69 297 -40 396 70 110 121 135 326 60 484 -31 68 -117 147 -180 169 -54
18 -180 20 -234 3z"/>
<path d="M3394 6750 c-12 -4 -31 -21 -44 -37 -41 -53 -13 -148 54 -180 42 -20
79 -11 117 27 49 49 37 143 -23 180 -35 21 -69 24 -104 10z"/>
<path d="M6569 6661 c-45 -45 -40 -110 12 -136 55 -29 119 -8 137 45 32 91
-80 159 -149 91z"/>
<path d="M4297 6599 c-30 -17 -47 -65 -62 -173 -13 -92 -13 -110 1 -162 16
-62 55 -121 95 -142 19 -9 171 -12 699 -10 747 3 719 1 752 68 27 52 25 268
-2 327 -23 52 -67 80 -134 87 -105 11 -1331 15 -1349 5z"/>
<path d="M3689 6411 c-66 -66 -9 -198 82 -189 64 6 99 100 64 168 -30 59 -98
68 -146 21z"/>
<path d="M6235 6306 c-70 -30 -85 -119 -29 -177 74 -77 182 -53 204 46 24 106
-71 177 -175 131z"/>
<path d="M5743 4845 c-37 -16 -73 -68 -73 -105 0 -57 69 -120 133 -120 57 0
105 75 92 144 -7 35 -47 86 -69 86 -6 0 -20 2 -31 5 -11 3 -35 -2 -52 -10z"/>
<path d="M5084 4806 c-37 -16 -74 -61 -74 -89 0 -36 42 -108 74 -128 17 -10
48 -19 70 -19 31 0 45 7 71 34 82 87 40 217 -68 216 -23 -1 -56 -7 -73 -14z"/>
<path d="M4278 4775 c-33 -18 -63 -92 -54 -132 15 -60 32 -73 92 -73 74 0 91
11 108 70 19 63 7 101 -39 130 -38 23 -70 25 -107 5z"/>
<path d="M3573 4275 c-58 -41 -41 -132 29 -149 95 -24 135 104 47 149 -35 19
-49 19 -76 0z"/>
<path d="M6665 4272 c-35 -7 -55 -33 -55 -72 0 -73 86 -109 129 -54 24 30 26
52 10 88 -13 27 -52 45 -84 38z"/>
<path d="M5835 4165 c-30 -30 -31 -54 -4 -89 20 -26 61 -35 85 -18 15 10 34
47 34 67 0 23 -45 65 -70 65 -11 0 -32 -11 -45 -25z"/>
<path d="M6522 3377 c-30 -32 -30 -90 0 -111 33 -23 65 -20 95 10 20 20 24 31
19 57 -12 62 -75 86 -114 44z"/>
<path d="M5831 3364 c-28 -35 -26 -69 4 -99 57 -58 141 -3 114 75 -20 55 -83
68 -118 24z"/>
<path d="M4264 3525 c-34 -51 17 -111 73 -86 53 24 32 111 -27 111 -20 0 -35
-8 -46 -25z"/>
<path d="M3681 3354 c-12 -15 -21 -34 -21 -44 0 -34 39 -70 75 -70 24 0 39 7
54 26 27 34 26 46 -5 83 -33 40 -74 42 -103 5z"/>
<path d="M7370 3170 c-24 -24 -25 -48 -4 -78 18 -26 65 -30 88 -6 9 8 16 28
16 44 0 56 -60 80 -100 40z"/>
<path d="M2906 3148 c-23 -32 -20 -65 9 -93 29 -30 45 -31 79 -4 32 25 36 77
8 102 -27 25 -78 22 -96 -5z"/>
<path d="M5305 2536 c-30 -45 16 -91 61 -61 28 18 31 46 8 69 -22 23 -51 20
-69 -8z"/>
<path d="M4918 2525 c-9 -21 -8 -28 7 -45 24 -27 51 -25 70 4 23 34 5 66 -36
66 -22 0 -32 -6 -41 -25z"/>
<path d="M4196 1468 c-21 -29 -20 -51 2 -78 37 -46 87 7 66 69 -12 34 -47 39
-68 9z"/>
<path d="M6046 1468 c-9 -12 -16 -29 -16 -38 0 -25 29 -60 50 -60 23 0 40 28
40 67 0 53 -46 72 -74 31z"/>
<path d="M4382 618 c-7 -7 -12 -23 -12 -36 0 -19 5 -23 23 -20 17 2 22 10 22
32 0 32 -14 43 -33 24z"/>
<path d="M5891 616 c-17 -20 -4 -56 20 -56 24 0 36 27 22 48 -14 22 -28 25
-42 8z"/>
</g>
</svg>