<?xml version="1.0" standalone="no"?>
<!DOCTYPE svg PUBLIC "-//W3C//DTD SVG 20010904//EN"
 "http://www.w3.org/TR/2001/REC-SVG-20010904/DTD/svg10.dtd">
<svg version="1.0" xmlns="http://www.w3.org/2000/svg"
 width="2048.000000pt" height="2048.000000pt" viewBox="0 0 2048.000000 2048.000000"
 preserveAspectRatio="xMidYMid meet">

<g transform="translate(0.000000,2048.000000) scale(0.100000,-0.100000)"
fill="#000000" stroke="none">
<path d="M10470 19910 c-419 -25 -871 -171 -1181 -381 -89 -60 -237 -188 -323
-280 -102 -108 -151 -184 -272 -421 -122 -238 -152 -273 -269 -312 -43 -14
-203 -51 -355 -82 -151 -30 -349 -73 -440 -95 -555 -136 -982 -358 -1329 -694
-248 -239 -415 -483 -506 -735 -39 -109 -102 -321 -119 -400 -24 -107 -75
-279 -96 -320 -30 -56 -64 -86 -116 -99 -288 -73 -408 -163 -547 -412 -73
-130 -158 -413 -186 -614 -49 -361 -55 -821 -16 -1121 24 -186 123 -451 221
-590 111 -158 308 -281 469 -292 77 -5 118 -21 139 -55 7 -12 26 -67 41 -122
89 -330 234 -682 339 -821 174 -233 362 -385 661 -540 274 -142 511 -221 1000
-334 175 -40 308 -61 525 -80 270 -24 274 -25 286 -107 11 -76 -1 -302 -17
-317 -16 -15 -99 -45 -319 -115 -85 -27 -185 -61 -222 -75 -151 -57 -449 -220
-582 -319 -354 -262 -588 -573 -741 -983 -20 -54 -45 -112 -55 -129 -11 -16
-66 -74 -124 -127 -112 -105 -175 -190 -231 -312 -72 -154 -86 -354 -39 -532
14 -55 30 -124 35 -154 8 -52 36 -189 95 -460 33 -151 146 -603 184 -733 16
-56 54 -199 85 -317 80 -307 151 -555 181 -630 14 -36 37 -103 51 -150 59
-205 213 -360 403 -404 87 -21 139 -20 256 4 108 22 152 37 294 100 52 23 103
39 115 37 11 -3 47 -12 80 -21 61 -17 378 -50 585 -61 202 -11 578 -45 602
-54 17 -6 36 -34 62 -90 21 -44 36 -85 34 -91 -2 -6 -26 4 -53 21 -105 68
-178 90 -324 99 -348 23 -618 -43 -747 -182 -104 -114 -140 -229 -132 -431 5
-120 6 -125 51 -226 26 -56 47 -112 47 -124 0 -22 -19 -87 -125 -422 -30 -93
-73 -230 -95 -304 -48 -157 -73 -210 -133 -279 -65 -76 -117 -156 -134 -204
-24 -66 -28 -211 -9 -291 29 -123 82 -204 183 -278 38 -29 55 -49 63 -76 115
-395 250 -961 250 -1046 0 -32 -3 -35 -77 -67 -339 -146 -493 -230 -563 -307
-61 -67 -80 -122 -87 -253 -6 -119 6 -157 67 -215 l31 -30 207 2 c445 4 650
14 1168 58 188 16 323 39 366 61 66 34 79 143 40 339 -14 74 -21 149 -22 228
0 147 -18 202 -98 307 -63 80 -76 114 -97 250 -40 260 -104 598 -146 782 l-23
97 29 98 c40 133 40 251 2 374 -15 48 -27 93 -27 100 0 8 19 64 41 124 85 229
239 678 258 751 10 39 91 141 203 257 l36 38 83 -3 82 -3 25 -45 c13 -25 35
-65 47 -90 42 -80 99 -126 190 -152 79 -23 86 -23 595 -22 729 1 756 7 832
173 16 35 40 81 54 102 24 38 25 39 86 39 58 0 62 -2 93 -37 18 -21 68 -78
111 -127 l78 -89 72 -211 c40 -116 102 -296 139 -401 114 -320 106 -293 94
-339 -5 -23 -18 -61 -27 -86 -26 -70 -22 -288 7 -353 25 -58 28 -139 6 -217
-22 -80 -71 -340 -100 -535 -29 -194 -51 -315 -67 -364 -6 -19 -34 -65 -63
-102 -29 -38 -65 -100 -80 -138 -23 -61 -27 -87 -30 -218 -2 -91 -10 -173 -20
-213 -20 -80 -29 -178 -21 -224 4 -19 21 -48 38 -65 41 -40 151 -65 373 -86
450 -40 803 -57 1110 -53 373 5 385 11 385 190 0 190 -66 324 -194 397 -61 35
-532 251 -546 251 -20 0 -22 -10 205 885 60 240 52 224 155 298 97 71 139 171
147 358 8 175 -10 227 -113 341 -81 88 -113 141 -139 233 -9 33 -51 170 -92
305 -41 135 -92 303 -114 374 -21 70 -39 134 -39 141 0 8 16 44 35 82 115 228
91 501 -61 678 -129 151 -367 217 -723 200 -161 -8 -228 -27 -338 -97 -43 -26
-80 -48 -84 -48 -11 0 70 173 87 186 7 6 100 16 206 23 106 6 254 16 328 22
74 6 191 14 260 19 261 19 517 59 567 90 46 28 114 172 189 399 49 148 72 206
88 216 11 8 84 23 161 35 209 31 302 68 336 131 13 25 62 308 95 548 14 101
27 188 30 193 10 16 26 -5 64 -86 21 -44 82 -173 135 -286 117 -246 159 -342
232 -520 64 -159 95 -210 167 -278 93 -89 195 -126 336 -126 112 1 187 22 272
77 68 43 110 98 178 232 44 88 58 133 115 370 55 227 249 1155 285 1363 6 35
11 97 11 137 0 66 5 85 39 158 46 98 55 135 70 286 9 85 9 139 0 211 -8 69 -8
105 0 125 15 40 60 321 60 377 0 47 -16 121 -62 293 -11 44 -40 116 -64 161
l-44 80 136 335 c192 474 214 541 214 654 0 169 -50 286 -179 415 -65 66 -86
80 -149 103 -40 15 -100 31 -135 37 -34 5 -298 23 -587 40 -971 57 -991 57
-1123 24 -143 -36 -223 -91 -318 -217 -77 -102 -86 -120 -214 -442 -59 -148
-109 -273 -112 -277 -2 -4 -43 12 -91 36 -116 59 -193 93 -277 123 -151 53
-340 104 -440 118 -59 8 -101 28 -115 54 -13 25 -13 221 0 376 13 152 12 150
157 158 220 12 571 100 885 221 378 146 752 399 884 597 100 151 240 457 334
734 78 230 114 296 178 329 41 21 74 26 232 36 120 7 160 14 233 39 49 17 103
39 121 51 18 11 36 20 38 20 3 0 9 -53 12 -117 36 -575 169 -743 642 -812 74
-11 138 -23 143 -26 24 -14 -44 -225 -156 -489 -47 -109 -85 -214 -86 -233 -2
-87 91 -104 214 -40 146 77 344 216 569 402 76 62 206 193 282 284 l28 33 172
-9 c250 -12 1666 -7 1903 6 232 14 485 44 592 71 266 69 414 269 463 628 40
303 63 781 57 1201 -9 631 -59 966 -171 1133 -118 178 -271 243 -666 282 -145
15 -254 20 -905 46 -426 17 -1046 8 -1905 -25 -166 -7 -434 -36 -546 -59 -38
-8 -69 -14 -70 -13 0 1 -7 43 -16 92 -17 96 -55 187 -113 267 -45 61 -156 154
-221 184 -48 23 -178 48 -374 73 -126 16 -159 28 -172 59 -7 17 -14 156 -19
367 -10 463 -20 531 -104 729 -55 128 -87 183 -167 290 -259 341 -655 611
-1313 891 -115 50 -228 104 -250 120 -46 35 -72 98 -105 246 -29 132 -85 292
-130 369 -93 159 -358 392 -618 543 -311 181 -911 341 -1378 367 -195 11 -219
10 -404 0z m434 -361 c177 -11 361 -47 579 -110 199 -59 284 -91 452 -174 287
-142 531 -349 622 -529 60 -119 90 -269 58 -296 -18 -15 -72 -10 -485 41 -173
22 -439 52 -590 66 -266 27 -294 28 -880 27 -333 0 -840 -8 -1128 -17 -379
-12 -529 -14 -544 -6 -27 15 -20 46 35 163 106 221 332 454 573 589 191 108
428 181 789 246 71 13 333 13 519 0z m201 -1289 c407 -25 1063 -114 1469 -201
397 -84 788 -215 1068 -355 342 -172 575 -373 747 -646 91 -144 159 -356 187
-583 36 -297 40 -902 8 -1325 -8 -107 -19 -253 -25 -324 -13 -179 -62 -600
-99 -849 -29 -198 -68 -400 -125 -642 -157 -676 -399 -1248 -610 -1442 -81
-74 -264 -187 -403 -248 -351 -154 -873 -275 -1314 -305 -363 -24 -1248 -19
-1828 10 -113 5 -410 17 -660 25 -483 15 -536 18 -890 41 -325 21 -443 32
-640 60 -588 85 -1117 262 -1409 471 -119 85 -331 295 -393 388 -25 39 -64
106 -86 150 -220 441 -312 870 -327 1528 -3 122 -7 299 -10 392 -4 189 27 876
49 1080 20 179 55 446 60 454 2 3 14 53 26 110 23 111 105 393 138 476 169
425 465 805 827 1061 184 130 337 213 562 303 425 170 906 268 1638 336 94 9
242 24 330 35 147 18 216 19 850 15 380 -3 767 -9 860 -15z m-5601 -2547 c4
-21 2 -117 -3 -214 -28 -481 -33 -672 -27 -1034 8 -513 8 -962 -2 -1005 -7
-31 -11 -35 -45 -38 -27 -2 -55 6 -107 34 -162 85 -261 263 -297 534 -18 136
-25 527 -12 700 24 349 94 604 214 791 50 78 233 269 257 269 11 0 18 -12 22
-37z m9611 -138 c39 -3 90 -12 115 -20 25 -8 64 -19 88 -25 58 -15 109 -62
123 -113 6 -22 14 -102 18 -176 l8 -134 -42 -91 c-110 -236 -146 -473 -160
-1047 -4 -194 -10 -260 -30 -364 -27 -140 -36 -157 -111 -201 -87 -51 -340
-91 -394 -62 -31 17 -32 53 -7 208 18 113 31 209 77 560 16 124 34 257 40 295
28 192 131 926 146 1040 9 72 18 134 21 138 2 4 12 6 21 3 10 -2 49 -7 87 -11z
m3285 -334 c80 -6 287 -17 460 -26 635 -32 778 -60 890 -175 94 -97 137 -228
165 -510 46 -472 47 -934 0 -1555 -21 -294 -49 -398 -141 -537 -43 -64 -54
-74 -118 -104 -226 -107 -646 -134 -2066 -134 l-735 0 -165 -166 c-91 -91
-210 -203 -266 -249 -99 -82 -339 -255 -355 -255 -4 0 12 48 36 108 81 203
125 377 125 501 0 78 -16 108 -63 115 -18 3 -90 15 -162 26 -273 44 -369 84
-442 187 -97 137 -126 429 -127 1283 -1 382 3 584 12 674 58 574 166 704 637
770 204 29 547 49 1020 60 256 6 1153 -3 1295 -13z m-9315 -4181 c420 -28 950
-44 1815 -55 442 -6 844 -20 885 -32 11 -3 23 -11 27 -17 4 -6 8 -112 8 -235
l0 -223 -212 5 c-210 4 -568 22 -1068 52 -395 24 -585 34 -845 45 -612 25
-846 43 -881 65 -27 17 -42 95 -51 252 -6 111 -6 111 21 138 26 25 31 27 89
21 34 -3 130 -10 212 -16z m5065 -160 c107 -5 335 -21 505 -35 171 -13 423
-32 560 -40 261 -16 307 -21 340 -38 36 -18 94 -68 117 -99 l22 -31 -25 6
c-119 29 -1017 90 -1359 91 -254 1 -268 0 -333 -23 -89 -30 -179 -99 -240
-183 -30 -42 -80 -138 -133 -260 -78 -178 -614 -1508 -752 -1868 -33 -85 -106
-274 -162 -420 -129 -336 -219 -599 -227 -667 -3 -29 -9 -53 -14 -53 -10 0
-41 44 -68 98 -50 99 -40 163 74 443 35 85 89 224 120 308 79 217 149 396 212
546 31 71 79 193 108 270 29 77 102 259 163 405 142 340 446 1092 481 1192 73
203 206 336 361 359 25 3 47 7 50 7 3 1 93 -3 200 -8z m350 -265 c892 -56
1207 -88 1231 -127 23 -36 8 -102 -60 -267 -38 -91 -108 -263 -156 -381 -97
-240 -350 -837 -365 -860 -11 -17 -6 -19 -96 50 -125 95 -380 225 -561 286
-103 35 -227 43 -289 19 -137 -52 -215 -214 -168 -347 19 -54 97 -143 189
-216 38 -30 38 -31 10 -21 -48 17 -214 49 -254 49 -89 0 -186 -63 -225 -144
-41 -86 -39 -210 4 -268 24 -33 24 -34 1 -66 -46 -67 -56 -181 -23 -268 45
-119 185 -247 367 -334 154 -74 250 -100 373 -100 28 0 52 -3 52 -8 0 -18 -64
-172 -103 -246 -47 -92 -122 -172 -191 -205 -77 -38 -162 -42 -576 -32 -212 6
-520 13 -685 17 -349 8 -382 13 -410 66 -18 34 -18 42 -7 109 7 39 29 108 48
153 20 44 64 151 99 236 153 375 251 615 364 889 67 161 137 332 156 380 18
47 64 158 100 246 120 289 322 787 370 915 126 331 212 437 389 475 81 18 127
18 416 0z m-5380 -315 c317 -17 468 -29 975 -75 477 -44 810 -64 1295 -75 483
-12 677 -27 855 -65 138 -29 359 -102 470 -154 96 -45 246 -133 264 -155 10
-12 -12 -76 -117 -333 -71 -175 -144 -357 -161 -404 l-33 -87 -87 -11 c-129
-16 -149 -14 -200 18 -76 49 -210 109 -306 137 -76 22 -110 26 -215 26 -114 0
-139 -4 -281 -40 -85 -22 -198 -56 -251 -76 -56 -21 -114 -36 -139 -36 -59 0
-109 -15 -197 -57 l-72 -36 -398 7 c-218 4 -512 11 -652 16 -664 26 -779 30
-970 40 -113 5 -299 15 -415 20 -483 24 -618 31 -775 40 -91 5 -253 14 -360
20 -240 13 -480 42 -480 57 0 21 135 261 197 350 294 421 657 669 1199 818
104 29 197 44 344 58 80 8 337 6 510 -3z m6409 -1107 c6 -21 15 -68 20 -104 5
-37 17 -81 26 -99 16 -31 16 -41 1 -145 -9 -61 -16 -117 -16 -124 0 -6 -33 21
-73 61 -40 40 -83 80 -97 89 l-24 16 35 79 c20 43 51 121 69 172 18 50 36 92
41 92 4 0 13 -17 18 -37z m-1099 -63 c30 -10 85 -32 122 -48 l66 -30 -9 -42
c-5 -24 -15 -52 -21 -64 -24 -48 -64 -106 -72 -106 -23 0 -205 110 -247 151
-52 48 -60 74 -38 123 22 47 88 52 199 16z m380 -177 c162 -100 185 -118 188
-149 4 -45 -33 -135 -71 -172 -29 -28 -37 -31 -59 -23 -14 5 -41 23 -59 39
-19 16 -56 41 -84 56 -27 15 -61 35 -74 45 l-24 19 26 44 c22 39 45 89 70 161
9 24 18 22 87 -20z m-2986 -51 c-1 -7 -2 -63 -3 -124 l-1 -113 -95 -33 c-90
-30 -97 -31 -125 -17 -48 25 -183 75 -202 75 -11 0 -20 10 -24 28 -3 15 -10
40 -15 56 -5 16 -8 31 -6 33 18 17 436 116 462 109 6 -1 10 -8 9 -14z m264
-30 c100 -35 217 -102 271 -154 53 -52 56 -89 9 -119 -47 -29 -167 -22 -260
15 -37 15 -86 33 -110 39 -40 12 -43 16 -51 57 -9 48 -4 160 7 179 11 18 49
13 134 -17z m-5088 -112 c143 -16 454 -38 680 -50 118 -5 301 -15 405 -20 105
-5 318 -14 475 -20 282 -11 884 -42 1175 -60 83 -5 299 -13 481 -16 l332 -7
-45 -46 c-78 -81 -162 -225 -199 -343 -10 -32 -21 -58 -25 -58 -19 0 -189
-125 -442 -326 -608 -482 -656 -523 -717 -620 -49 -78 -100 -111 -100 -65 0
35 -31 156 -45 175 -30 40 -211 55 -970 76 -187 5 -457 9 -601 10 l-261 0 -18
83 c-25 120 -39 146 -104 207 l-60 55 -21 150 c-11 83 -25 177 -30 210 -20
128 -79 554 -85 619 l-8 69 49 -7 c27 -4 87 -11 134 -16z m-426 -267 c73 -515
98 -723 84 -723 -4 0 -33 10 -64 21 -120 45 -241 212 -280 385 -22 101 -15
243 16 334 12 36 41 93 65 126 43 60 109 123 130 124 6 0 27 -114 49 -267z
m4578 215 c25 -43 2 -400 -30 -488 -10 -26 -196 -197 -294 -270 -90 -68 -162
-110 -236 -139 l-53 -21 -18 42 c-28 64 -35 190 -16 263 44 167 143 307 320
452 50 40 99 82 110 93 27 26 155 89 182 90 13 0 28 -9 35 -22z m4115 3 c23
-11 63 -41 88 -68 132 -137 176 -318 125 -517 -54 -213 -219 -376 -413 -408
-80 -13 -246 2 -283 27 -24 15 -24 16 -8 53 9 20 30 75 46 121 16 45 45 103
64 128 19 25 42 62 50 82 18 40 44 187 44 243 0 32 5 39 44 62 77 45 134 125
156 222 17 71 18 74 32 74 7 0 32 -9 55 -19z m-1151 -120 c32 -11 92 -29 131
-40 45 -13 76 -29 83 -40 11 -22 -8 -105 -41 -176 -17 -37 -26 -45 -48 -45
-14 0 -37 7 -51 15 -14 8 -45 25 -70 38 -95 48 -161 101 -186 149 -18 36 -18
47 6 86 18 29 24 32 68 32 26 0 75 -9 108 -19z m-2656 -132 c131 -55 241 -146
303 -250 31 -53 37 -73 37 -120 0 -46 -13 -112 -26 -128 -2 -2 -50 46 -107
105 -77 80 -132 126 -206 174 -100 65 -101 65 -96 100 3 19 5 61 5 93 0 31 3
57 8 57 4 0 41 -14 82 -31z m3220 -44 c41 -11 81 -23 89 -29 31 -24 -15 -193
-60 -220 -12 -6 -52 -1 -135 18 -125 30 -194 48 -194 51 0 2 11 28 25 59 14
31 28 82 31 114 3 31 7 62 9 68 2 8 29 3 82 -16 43 -15 112 -35 153 -45z
m-2667 19 c148 -52 313 -69 396 -39 22 8 41 11 41 8 0 -4 -50 -133 -111 -287
-61 -155 -132 -342 -157 -416 -40 -120 -45 -145 -45 -225 0 -107 20 -171 88
-281 82 -131 219 -232 345 -254 30 -5 255 -14 500 -20 244 -6 446 -13 449 -15
7 -7 -48 -440 -67 -524 -4 -19 -19 -42 -32 -53 -38 -27 -276 -56 -581 -68
-373 -16 -1375 -18 -1389 -4 -13 13 -15 245 -5 679 l8 303 41 19 c55 24 143
90 208 155 62 62 107 143 138 247 16 52 38 94 76 144 63 84 83 135 91 239 9
118 -28 227 -118 344 -21 28 -39 56 -39 62 0 21 87 13 163 -14z m1999 -260
c45 -26 97 -53 115 -60 l33 -14 -19 -48 c-30 -76 -44 -102 -52 -102 -14 0
-111 83 -141 121 -17 21 -32 54 -35 77 -5 39 0 72 12 72 3 0 42 -21 87 -46z
m-2627 -75 c99 -63 223 -208 253 -297 11 -33 11 -33 -33 -53 -24 -11 -73 -22
-108 -26 -75 -7 -102 4 -166 71 -39 40 -45 52 -49 99 -7 84 23 237 46 237 4 0
30 -14 57 -31z m2932 -50 c15 -6 89 -23 163 -38 l135 -27 -3 -30 c-2 -16 -14
-53 -28 -83 l-24 -54 -98 6 c-94 5 -262 47 -262 66 0 4 9 25 19 47 10 21 24
58 30 82 12 45 22 49 68 31z m-3254 -152 c0 -61 -1 -117 -2 -123 -2 -18 -129
-116 -169 -130 -74 -26 -194 -9 -252 35 l-25 20 56 25 c114 50 280 166 363
255 17 17 30 31 30 31 1 0 0 -51 -1 -113z m-773 -74 c7 -32 22 -79 34 -105
l22 -46 -260 -209 c-235 -187 -356 -290 -669 -568 -54 -48 -100 -85 -102 -83
-2 1 -10 31 -19 64 -20 76 -20 154 -2 198 21 51 152 161 721 606 109 85 210
165 224 177 14 12 29 23 33 23 4 0 12 -26 18 -57z m-3740 -302 c36 -17 70 -31
76 -31 31 0 39 -25 190 -660 58 -245 112 -477 121 -517 l16 -72 -84 -80 c-46
-44 -84 -79 -85 -78 0 1 -22 74 -47 162 -104 358 -250 918 -317 1220 -17 77
-33 146 -35 153 -3 7 19 -5 48 -27 28 -22 81 -53 117 -70z m5043 61 c-75 -93
-222 -169 -309 -159 -57 6 -74 25 -74 83 0 35 5 45 33 66 58 45 70 48 113 33
52 -19 115 -17 194 4 36 9 67 15 69 14 3 -2 -9 -20 -26 -41z m3743 -218 c-61
-282 -178 -838 -197 -931 -14 -66 -22 -75 -39 -43 -14 27 -128 106 -189 132
-38 15 -50 25 -47 37 17 55 87 350 146 608 38 167 74 311 79 322 7 12 27 20
61 25 57 8 139 41 196 80 21 14 39 24 41 23 1 -2 -22 -115 -51 -253z m-4864
172 l47 -43 -67 -65 c-81 -78 -252 -233 -347 -313 -74 -63 -359 -318 -482
-431 -67 -61 -75 -66 -106 -60 -33 6 -147 72 -147 84 1 4 24 25 53 47 28 22
133 110 232 195 99 86 263 223 364 305 101 83 232 189 290 237 58 47 108 87
111 87 3 0 26 -19 52 -43z m4498 -48 c0 -7 -36 -161 -80 -343 -45 -181 -95
-390 -112 -462 -31 -130 -32 -133 -59 -133 -14 0 -41 -3 -59 -6 l-32 -7 7 44
c4 24 45 195 90 379 46 184 94 381 106 438 l22 102 59 0 c40 0 58 -4 58 -12z
m-3953 -71 c19 -72 71 -137 133 -168 30 -16 68 -29 84 -29 l29 0 -8 -422 c-4
-233 -10 -452 -14 -488 l-6 -65 -755 -2 c-415 -2 -843 1 -950 5 l-195 7 50 30
c28 16 74 49 103 73 32 26 73 49 103 56 66 17 94 39 309 232 102 91 230 205
285 252 279 241 445 398 501 475 l36 47 91 1 c65 0 105 5 137 19 25 10 47 18
50 19 3 1 11 -18 17 -42z m-4112 12 c8 -8 28 -77 44 -154 16 -77 48 -219 71
-315 134 -573 153 -660 147 -666 -3 -3 -26 -9 -51 -11 l-45 -5 -11 43 c-6 24
-22 85 -36 134 -19 74 -176 715 -229 939 l-14 58 55 -4 c30 -3 61 -11 69 -19z
m915 -193 c496 -9 936 -27 989 -40 40 -9 48 -16 58 -46 7 -19 12 -55 12 -80
l1 -46 -65 -32 c-36 -18 -67 -32 -69 -32 -2 0 -7 12 -10 26 -16 63 -80 113
-129 100 -38 -9 -84 -52 -97 -91 -9 -29 -8 -41 11 -85 12 -28 20 -52 18 -54
-2 -2 -248 -128 -547 -280 -321 -163 -554 -276 -571 -276 -26 0 -28 3 -44 88
-9 48 -20 98 -24 112 l-7 25 33 -27 c35 -30 87 -44 128 -33 15 3 44 23 65 44
33 34 38 45 38 85 0 39 -6 52 -36 85 -63 71 -149 79 -199 19 -14 -17 -29 -44
-32 -59 -3 -16 -9 -29 -13 -29 -3 0 -16 44 -28 98 -12 53 -44 192 -72 309 -27
116 -50 218 -50 225 0 10 29 12 147 7 82 -4 303 -9 493 -13z m6700 -203 c-15
-60 -36 -144 -45 -188 -10 -44 -20 -83 -24 -87 -4 -5 -29 38 -56 93 l-50 101
25 16 c14 8 59 50 100 93 41 43 76 78 77 78 1 1 -11 -47 -27 -106z m-204 -288
c46 -96 84 -182 84 -190 0 -9 -16 -48 -37 -88 l-36 -72 -49 105 c-95 202 -180
392 -176 395 2 1 30 7 63 12 33 6 61 11 63 12 2 0 41 -78 88 -174z m-5223 54
c10 -44 17 -82 15 -83 -12 -9 -89 -53 -178 -101 -58 -32 -177 -97 -265 -145
-88 -48 -234 -126 -325 -172 -91 -47 -275 -142 -409 -212 -134 -70 -244 -126
-245 -124 -2 2 -15 26 -31 53 -16 28 -39 64 -52 81 l-23 31 242 124 c538 275
1234 626 1243 627 6 1 18 -34 28 -79z m210 -309 c4 -3 -21 -22 -55 -42 -35
-19 -110 -62 -168 -95 -204 -117 -607 -341 -750 -418 -154 -83 -478 -262 -495
-274 -21 -14 -126 -53 -131 -48 -3 3 -1 22 5 44 6 21 11 72 11 114 l0 77 88
45 c48 24 200 102 337 172 255 130 459 237 825 433 l205 110 60 -56 c33 -30
63 -58 68 -62z m5567 -183 c110 -54 155 -150 130 -276 -25 -132 -107 -212
-225 -219 -199 -13 -325 150 -274 353 13 50 74 127 120 150 77 40 155 38 249
-8z m-7558 -247 c138 -52 227 -237 184 -385 -22 -75 -70 -151 -118 -185 -158
-115 -367 -53 -454 134 -19 40 -24 68 -24 132 0 74 3 88 36 154 39 77 84 118
167 152 57 23 144 22 209 -2z m3633 -96 c1216 -5 1841 -15 1893 -30 30 -9 28
-32 -5 -45 -87 -33 -261 -48 -888 -74 -601 -26 -994 -32 -1835 -32 -794 0
-1261 7 -1453 22 l-98 7 148 85 148 84 400 -6 c220 -3 981 -7 1690 -11z m1831
-259 c8 -21 -15 -84 -35 -95 -70 -37 -700 -90 -1456 -121 -500 -21 -1553 -15
-1995 11 -85 5 -243 14 -350 20 -107 6 -285 17 -395 25 -110 8 -249 17 -308
21 -60 4 -105 10 -100 14 4 5 54 34 110 65 l101 57 209 -16 c371 -29 1053 -39
2198 -32 594 4 1118 9 1165 11 80 5 631 41 730 48 106 8 121 7 126 -8z m-3249
-500 c15 -11 38 -64 83 -197 34 -101 66 -201 71 -223 5 -22 48 -156 95 -297
47 -142 82 -263 78 -269 -11 -18 -81 -3 -119 25 -23 18 -38 40 -46 68 -6 24
-27 73 -46 111 -67 133 -313 718 -329 781 l-7 29 99 -7 c56 -4 108 -13 121
-21z m1773 7 c0 -25 -194 -527 -307 -797 -28 -66 -54 -129 -57 -141 -16 -54
-101 -91 -140 -61 -18 13 -18 17 14 138 18 68 43 156 56 194 41 126 64 203 83
287 11 46 29 110 41 143 11 33 28 90 36 127 8 37 21 71 28 77 24 20 246 50
246 33z m-368 -19 c4 -2 -1 -27 -11 -56 -22 -63 -59 -177 -99 -312 -17 -55
-58 -188 -91 -295 -32 -107 -63 -213 -66 -235 -4 -22 -14 -50 -21 -62 l-14
-23 -314 0 -313 0 -13 28 c-7 15 -27 70 -45 122 -207 608 -281 831 -276 835 6
7 1252 5 1263 -2z m-2221 -230 c7 -7 0 -29 -25 -75 -47 -84 -76 -201 -76 -305
l0 -83 -62 0 c-106 0 -289 -19 -370 -39 -43 -10 -83 -14 -90 -10 -9 6 -14 39
-16 106 -4 104 15 188 59 259 22 37 124 93 212 118 139 40 341 56 368 29z
m3445 -3 c297 -54 377 -132 378 -372 1 -133 -6 -145 -80 -128 -158 37 -317 49
-387 29 -57 -15 -63 -5 -70 118 -9 147 -27 211 -98 345 -5 10 -9 20 -9 23 0
12 166 3 266 -15z m-3232 -34 c19 -8 37 -19 41 -26 4 -6 -14 -33 -43 -63 -50
-54 -83 -123 -97 -204 -11 -66 28 -192 75 -245 21 -24 49 -50 64 -57 57 -31
16 -78 -57 -67 -114 18 -165 105 -182 307 -11 132 28 271 96 339 34 33 54 37
103 16z m2843 -6 c40 -24 76 -80 104 -162 19 -56 21 -77 16 -183 -6 -131 -16
-169 -58 -232 -45 -66 -144 -102 -200 -73 -32 18 -23 46 26 75 56 33 89 81
110 165 31 119 9 222 -69 324 -39 52 -47 92 -18 99 36 10 58 6 89 -13z m-2447
-300 c21 -52 35 -100 33 -107 -4 -10 -43 -13 -154 -13 -172 0 -165 -5 -175
108 -6 63 -5 71 15 91 20 20 30 21 132 19 l111 -3 38 -95z m2267 39 c12 -35 8
-110 -9 -142 -8 -16 -23 -17 -151 -15 l-142 3 2 27 c1 15 17 58 35 95 l33 68
90 11 c104 12 123 6 142 -47z m-3087 -371 c-1 -13 -10 -48 -20 -78 -33 -91
-236 -716 -275 -844 -20 -66 -41 -126 -47 -133 -7 -9 -43 -13 -125 -13 -94 0
-115 3 -120 16 -7 19 23 123 137 472 16 51 30 100 30 109 0 22 105 348 130
406 11 25 26 49 32 53 13 8 168 31 221 33 32 1 37 -2 37 -21z m3862 -3 c9 -3
25 -27 36 -53 23 -54 102 -305 157 -497 48 -168 98 -335 124 -413 12 -34 21
-68 21 -76 0 -22 -31 -27 -150 -24 l-105 3 -13 45 c-8 25 -45 142 -82 260 -38
118 -98 307 -133 420 -35 113 -76 234 -90 269 -14 36 -23 69 -20 74 6 11 226
4 255 -8z m-3681 -111 c18 -20 58 -50 87 -66 30 -17 56 -36 58 -43 8 -20 -21
-118 -105 -350 -132 -368 -143 -395 -163 -406 -24 -13 -171 -1 -194 15 -14 11
-14 16 -1 51 8 22 29 94 47 160 18 66 45 156 60 200 15 44 42 130 60 190 45
150 82 268 87 278 9 15 30 6 64 -29z m3318 -12 c16 -32 80 -229 146 -452 7
-25 30 -99 50 -165 21 -66 40 -146 43 -178 l5 -58 -99 3 c-98 3 -99 3 -112 32
-24 50 -107 274 -182 494 -72 210 -73 213 -54 233 10 12 37 30 59 41 22 12 58
36 79 54 22 19 41 34 43 34 1 0 11 -17 22 -38z m-3489 -1097 c16 -15 41 -55
56 -88 64 -141 18 -339 -88 -382 -25 -10 -52 -13 -70 -10 -95 21 -174 221
-138 350 18 65 65 134 103 151 45 20 103 11 137 -21z m3715 16 c79 -36 118
-114 118 -237 0 -93 -27 -167 -82 -222 -28 -27 -40 -32 -82 -32 -44 0 -53 4
-87 38 -63 63 -87 123 -87 217 0 62 5 89 22 121 31 59 72 105 108 120 39 17
43 17 90 -5z m-4114 -73 c3 -4 1 -41 -4 -81 -11 -91 -4 -164 22 -246 12 -35
21 -68 21 -73 0 -6 -74 -8 -189 -6 l-190 3 -30 29 c-69 66 -88 233 -39 338
l26 56 188 -5 c104 -3 192 -10 195 -15z m4789 -28 c22 -39 25 -57 25 -135 -1
-101 -25 -172 -74 -219 l-28 -26 -174 2 -174 3 1 35 c0 19 5 78 12 130 6 52
14 130 18 172 l6 77 127 4 c246 6 232 9 261 -43z m-660 -620 c0 -21 -37 -195
-50 -235 -5 -16 -43 -164 -84 -329 -41 -164 -79 -303 -85 -309 -6 -6 -26 -2
-58 14 l-48 24 2 91 c2 49 14 160 27 245 14 85 34 219 46 299 26 192 38 238
58 242 10 2 56 -3 105 -11 67 -12 87 -19 87 -31z m-4058 34 c50 -5 69 -11 72
-23 41 -153 145 -577 177 -726 7 -27 22 -94 35 -147 13 -53 24 -122 24 -153 0
-72 -15 -80 -135 -70 -123 10 -124 12 -185 222 -27 94 -72 263 -100 375 -29
112 -65 249 -81 305 -35 120 -51 202 -43 214 6 10 138 12 236 3z m402 -52 c8
-31 25 -113 35 -182 11 -69 32 -195 46 -280 14 -85 28 -200 31 -255 8 -116 3
-124 -70 -132 l-45 -5 -10 38 c-73 286 -201 810 -201 828 0 21 6 24 78 33 128
17 117 20 136 -45z m4083 42 c3 -8 -4 -50 -16 -92 -11 -42 -46 -174 -76 -292
-31 -118 -70 -264 -86 -325 -56 -206 -89 -330 -94 -356 -6 -34 -21 -39 -132
-46 -122 -8 -143 4 -143 80 0 30 7 76 15 103 8 27 26 103 40 169 14 66 62 267
107 448 l81 327 149 0 c126 0 150 -2 155 -16z m-3827 -1059 c49 -25 63 -65 58
-168 -4 -88 -5 -90 -41 -123 -29 -27 -45 -34 -76 -34 -121 0 -168 219 -65 309
39 35 78 40 124 16z m3062 -15 c25 -31 48 -114 48 -173 0 -59 -23 -101 -66
-122 -75 -36 -135 -2 -169 94 -44 127 20 240 130 227 25 -3 46 -13 57 -26z
m-3617 -239 c44 -5 103 -15 130 -23 45 -12 54 -19 93 -78 54 -83 92 -115 167
-139 88 -28 135 -32 196 -17 29 8 57 12 61 10 5 -3 8 -25 8 -49 0 -42 -2 -44
-32 -49 -145 -22 -735 -55 -1119 -63 l-339 -6 0 24 c1 69 69 149 172 201 95
48 372 177 413 193 41 15 79 15 250 -4z m4339 -17 c106 -42 329 -152 401 -199
28 -17 67 -48 88 -68 33 -31 38 -41 35 -74 l-3 -38 -85 -9 c-140 -14 -876 14
-1265 48 l-130 11 -3 45 c-4 68 5 75 68 56 150 -45 296 12 374 144 20 34 41
57 57 62 126 35 238 56 308 57 51 1 81 -6 155 -35z"/>
<path d="M7873 17419 c-318 -46 -654 -203 -906 -424 -416 -363 -645 -949 -624
-1599 4 -142 11 -208 32 -304 29 -137 103 -375 144 -467 103 -227 329 -488
533 -618 270 -171 537 -235 937 -224 294 7 443 43 688 162 420 205 784 581
966 995 46 106 99 285 134 455 24 117 27 152 27 345 1 206 -1 221 -32 364 -77
356 -196 596 -408 825 -251 271 -598 440 -1004 491 -100 12 -398 11 -487 -1z
m452 -349 c160 -14 281 -47 417 -116 192 -95 299 -182 418 -339 75 -98 151
-241 200 -375 69 -187 107 -469 90 -673 -32 -392 -175 -724 -421 -984 -77 -81
-112 -108 -56 -43 52 61 123 207 147 304 28 109 27 284 0 392 -57 222 -195
386 -387 461 -58 23 -84 27 -178 27 -186 2 -317 -55 -460 -199 -88 -89 -135
-160 -172 -263 -79 -213 -67 -438 33 -640 77 -156 210 -268 366 -308 97 -25
258 -23 332 4 67 25 85 22 34 -4 -333 -177 -652 -237 -971 -185 -71 12 -162
34 -206 51 -237 91 -444 280 -596 543 -86 150 -140 304 -174 502 -6 33 -16 83
-22 110 -5 28 -10 127 -10 220 0 185 17 296 79 515 84 298 301 601 550 768
286 192 596 265 987 232z"/>
<path d="M11953 17259 c-102 -13 -298 -66 -411 -111 -465 -185 -794 -538 -987
-1055 -56 -151 -69 -208 -92 -393 -79 -653 105 -1257 499 -1636 171 -164 346
-269 588 -352 l105 -36 260 -4 c161 -2 296 1 355 8 379 47 798 241 1065 493
119 112 164 169 251 314 193 322 257 534 285 943 10 149 9 183 -10 345 -23
199 -45 296 -98 430 -74 186 -197 399 -305 528 -200 239 -517 426 -842 496
-169 37 -497 52 -663 30z m473 -390 c145 -25 238 -56 367 -122 176 -89 327
-210 460 -367 103 -122 138 -178 192 -303 72 -171 99 -332 97 -592 -2 -313
-65 -547 -207 -767 -279 -431 -689 -671 -1185 -695 -147 -7 -233 4 -388 48
-489 139 -817 500 -929 1021 -24 112 -24 439 0 580 64 372 267 722 539 930
177 134 420 249 590 277 104 17 337 12 464 -10z"/>
<path d="M12340 15516 c-244 -55 -435 -242 -520 -511 -32 -100 -39 -284 -15
-391 34 -152 105 -285 197 -368 119 -108 252 -152 437 -144 91 4 117 9 183 37
336 141 513 541 404 914 -32 106 -69 182 -129 262 -126 168 -349 248 -557 201z"/>
<path d="M6779 13492 c-69 -36 -119 -112 -119 -182 0 -96 70 -213 149 -246
141 -59 295 52 294 211 -1 99 -57 181 -153 224 -62 28 -108 26 -171 -7z"/>
<path d="M13195 13361 c-85 -38 -136 -132 -115 -210 18 -66 108 -131 184 -131
37 0 98 24 126 50 16 15 35 50 46 83 14 47 15 63 6 96 -21 67 -112 131 -187
131 -11 0 -38 -9 -60 -19z"/>
<path d="M8845 13200 c-148 -3 -271 -7 -273 -8 -2 -1 -16 -30 -33 -65 -34 -74
-77 -280 -86 -413 -5 -76 -2 -106 16 -175 36 -135 129 -270 204 -298 36 -14
2385 -14 2602 -1 172 10 218 21 255 59 52 51 64 122 65 356 0 248 -12 332 -58
401 -33 51 -110 105 -172 123 -81 24 -1770 37 -2520 21z"/>
<path d="M7425 12857 c-96 -55 -132 -176 -82 -280 49 -98 129 -149 211 -131
100 21 176 192 132 298 -17 42 -71 103 -107 122 -41 21 -108 17 -154 -9z"/>
<path d="M12502 12626 c-99 -33 -155 -105 -156 -200 0 -100 55 -181 161 -233
224 -109 432 191 257 371 -19 20 -49 43 -67 52 -42 22 -142 27 -195 10z"/>
<path d="M16175 14924 c-141 -11 -243 -27 -281 -44 -39 -16 -45 -24 -58 -72
-32 -111 -39 -195 -38 -463 1 -327 27 -620 60 -664 58 -78 218 -105 617 -105
408 0 569 29 617 110 35 60 51 276 45 614 -10 534 -24 584 -177 610 -63 11
-683 22 -785 14z m684 -124 c73 -5 127 -13 131 -20 4 -6 13 -66 21 -133 15
-135 17 -805 2 -866 -7 -29 -15 -36 -53 -47 -25 -8 -45 -14 -46 -14 -1 0 -4
42 -7 94 -4 57 -15 115 -27 150 -27 70 -106 158 -172 192 l-49 25 26 31 c87
104 84 275 -8 375 -58 63 -124 93 -207 93 -246 0 -367 -285 -205 -479 19 -22
23 -31 12 -31 -29 0 -133 -87 -166 -139 -42 -65 -69 -152 -72 -230 -3 -81 -9
-89 -52 -69 -40 19 -37 7 -58 314 -12 174 -9 728 4 740 21 21 695 31 926 14z
m-303 -261 c18 -11 42 -39 53 -63 86 -176 -133 -330 -264 -185 -76 84 -47 210
60 261 47 22 102 17 151 -13z m44 -468 c120 -46 172 -125 178 -276 l4 -92 -92
-6 c-112 -8 -390 -7 -480 2 l-65 6 2 66 c5 161 99 281 250 319 52 13 141 4
203 -19z"/>
<path d="M17580 14830 c-31 -33 -133 -262 -128 -288 2 -9 13 -18 25 -20 18 -3
31 14 78 92 32 53 59 96 60 96 2 0 15 -36 30 -81 31 -94 60 -131 98 -131 41 0
70 24 106 91 18 34 34 61 37 61 2 0 11 -18 20 -40 23 -56 66 -90 115 -90 33 0
48 7 88 45 l49 46 48 -31 c26 -16 61 -30 77 -30 42 0 93 27 127 68 36 43 42
68 23 87 -18 19 -57 11 -100 -21 -40 -30 -54 -30 -83 1 -28 30 -82 49 -112 39
-12 -3 -43 -27 -70 -52 -28 -26 -52 -41 -57 -36 -4 5 -16 29 -25 54 -22 56
-53 90 -82 90 -28 0 -80 -44 -119 -100 -16 -22 -32 -37 -36 -33 -4 4 -21 46
-38 92 -46 127 -77 149 -131 91z"/>
<path d="M18852 14773 c-17 -8 -44 -35 -60 -59 -15 -24 -30 -43 -33 -44 -3 0
-16 23 -28 51 -19 40 -27 50 -45 47 -18 -3 -21 -10 -23 -58 -3 -71 23 -147 60
-174 26 -19 30 -19 55 -5 22 12 77 88 96 133 3 6 22 -8 43 -31 79 -86 116 -93
260 -51 93 26 118 30 183 25 124 -10 189 15 176 66 -9 39 -56 52 -176 50 -75
-1 -133 -9 -205 -27 -55 -14 -105 -26 -112 -26 -8 0 -37 24 -66 54 -61 63 -81
71 -125 49z"/>
<path d="M18591 14309 c-270 -11 -315 -23 -309 -77 6 -52 28 -53 633 -50 497
3 553 5 581 20 17 10 34 25 38 34 10 26 -20 62 -61 73 -43 12 -607 12 -882 0z"/>
<path d="M17543 14270 c-63 -15 -78 -43 -42 -76 19 -17 42 -19 264 -22 l242
-3 28 23 c33 29 28 59 -11 76 -28 14 -428 15 -481 2z"/>
<path d="M18205 13963 c-680 -20 -673 -19 -699 -37 -33 -21 -33 -51 -1 -72 40
-26 278 -36 690 -29 369 6 440 12 457 37 15 23 4 60 -24 81 -24 18 -44 21
-165 22 -76 1 -192 0 -258 -2z"/>
<path d="M18876 13914 c-52 -52 48 -113 112 -68 24 17 29 53 10 72 -18 18
-103 15 -122 -4z"/>
<path d="M17550 13333 c-656 -8 -1385 -25 -1444 -34 -142 -20 -247 -94 -304
-217 -24 -50 -27 -68 -26 -157 1 -123 24 -191 90 -264 62 -69 144 -108 259
-124 111 -15 3004 -12 3181 3 190 17 238 41 286 145 20 43 23 70 26 197 8 306
-29 384 -203 434 -55 16 -130 18 -865 19 -443 1 -893 0 -1000 -2z m1862 -127
c74 -22 92 -78 93 -281 0 -137 -2 -154 -23 -192 -34 -64 -64 -75 -227 -84
-244 -13 -3060 -15 -3140 -1 -92 15 -168 66 -205 137 -21 42 -25 63 -25 140 0
73 4 98 22 131 21 40 83 102 122 123 75 41 53 40 1741 37 888 -1 1627 -6 1642
-10z"/>
<path d="M16164 13011 c-65 -28 -84 -113 -35 -162 49 -49 125 -38 157 23 40
78 -42 172 -122 139z"/>
<path d="M16518 13005 c-15 -8 -32 -24 -38 -35 -14 -26 -12 -91 3 -111 31 -40
99 -51 142 -23 49 32 50 123 2 162 -24 20 -79 24 -109 7z"/>
<path d="M16877 13009 c-24 -14 -47 -62 -47 -99 0 -80 115 -122 174 -64 61 62
15 174 -71 174 -21 0 -46 -5 -56 -11z"/>
<path d="M14092 10451 c-77 -26 -129 -76 -169 -159 -21 -46 -25 -64 -21 -126
4 -96 34 -143 113 -181 48 -24 64 -27 118 -23 151 12 277 142 277 286 0 92
-66 181 -154 207 -64 19 -99 18 -164 -4z m122 -173 c9 -12 16 -31 16 -41 0
-77 -115 -141 -154 -85 -43 62 5 148 83 148 30 0 44 -6 55 -22z"/>
<path d="M11500 9698 c-74 -25 -160 -146 -160 -226 0 -46 52 -123 113 -169
132 -96 240 -77 310 57 60 115 19 272 -85 326 -37 19 -135 26 -178 12z"/>
<path d="M10169 9608 c-44 -23 -77 -49 -106 -86 -52 -64 -55 -95 -14 -184 56
-123 108 -170 207 -187 118 -21 188 18 246 137 42 84 45 163 9 231 -45 87
-105 121 -211 121 -56 0 -78 -5 -131 -32z"/>
<path d="M8575 9561 c-92 -56 -152 -200 -125 -300 22 -84 82 -121 191 -121
152 0 222 74 221 231 0 67 -18 104 -68 149 -70 61 -159 78 -219 41z"/>
<path d="M7140 8544 c-42 -36 -60 -74 -60 -129 0 -87 42 -144 121 -165 85 -23
164 22 190 108 31 104 -58 212 -175 212 -33 0 -52 -6 -76 -26z"/>
<path d="M13095 6786 c-17 -7 -45 -30 -63 -50 -27 -31 -32 -44 -32 -89 0 -88
41 -135 124 -144 45 -5 48 -4 96 44 46 47 50 54 50 99 0 60 -32 113 -83 138
-42 19 -52 19 -92 2z"/>
<path d="M11699 6757 c-48 -32 -79 -83 -79 -128 0 -72 104 -158 173 -144 72
15 117 71 117 145 0 115 -121 188 -211 127z"/>
<path d="M14682 6200 c-69 -42 -81 -150 -22 -202 56 -51 152 -32 184 36 20 42
20 78 1 116 -35 67 -101 88 -163 50z"/>
<path d="M7143 5901 c-89 -41 -104 -153 -27 -220 28 -26 43 -31 83 -31 82 0
128 57 118 146 -5 48 -32 85 -79 110 -35 18 -44 17 -95 -5z"/>
<path d="M10653 5110 c-40 -16 -66 -95 -47 -145 23 -60 174 -20 174 46 0 34
-29 85 -56 98 -29 13 -41 13 -71 1z"/>
<path d="M9851 5074 c-36 -46 -19 -118 34 -142 37 -17 50 -15 84 14 27 22 31
32 31 74 0 59 -23 80 -86 80 -34 0 -47 -5 -63 -26z"/>
<path d="M8403 2948 c-61 -68 -54 -140 18 -186 80 -50 148 49 105 153 -24 57
-86 74 -123 33z"/>
<path d="M12129 2965 c-37 -20 -74 -94 -65 -130 11 -43 70 -97 102 -93 71 8
100 155 43 216 -23 25 -43 27 -80 7z"/>
<path d="M8756 1218 c-21 -30 -20 -61 3 -82 32 -29 71 2 71 58 0 47 -48 62
-74 24z"/>
<path d="M11786 1228 c-31 -44 -7 -108 39 -108 25 0 55 33 55 61 0 24 -39 69
-60 69 -10 0 -26 -10 -34 -22z"/>
</g>
</svg>
